<svg xmlns="http://www.w3.org/2000/svg" width="165" height="165" viewBox="0 0 165 165">
  <g id="Group_270" data-name="Group 270" transform="translate(-733 -1858)">
    <g id="Group_63" data-name="Group 63" transform="translate(-11 180)">
      <circle id="Ellipse_12" data-name="Ellipse 12" cx="52.5" cy="52.5" r="52.5" transform="translate(774 1708)" fill="#e2e2e2"/>
      <circle id="Ellipse_11" data-name="Ellipse 11" cx="52.5" cy="52.5" r="52.5" transform="translate(774 1708)" fill="#fff"/>
    </g>
    <path id="Icon_awesome-digital-ocean" data-name="Icon awesome-digital-ocean" d="M6.117,33.877H11.3V28.7H6.117ZM1.786,24.37V28.7H6.117V24.37Zm32.78-11.932A16.874,16.874,0,0,0,23.555,1.427,17.5,17.5,0,0,0,.563,17.993H7.3A10.74,10.74,0,0,1,21.93,8.03a10.087,10.087,0,0,1,6.033,6.026A10.724,10.724,0,0,1,18.021,28.68V28.7H18v6.736a17.484,17.484,0,0,0,16.566-23ZM18.021,28.68v-6.7H11.3V28.7H18V28.68Z" transform="translate(800.233 1923.5)" opacity="0.35"/>
  </g>
</svg>
