<svg xmlns="http://www.w3.org/2000/svg" width="16.186" height="16.182" viewBox="0 0 16.186 16.182">
  <path id="Icon_awesome-instagram" data-name="Icon awesome-instagram" d="M8.089,6.18a4.149,4.149,0,1,0,4.149,4.149A4.142,4.142,0,0,0,8.089,6.18Zm0,6.846a2.7,2.7,0,1,1,2.7-2.7A2.7,2.7,0,0,1,8.089,13.026ZM13.376,6.01a.968.968,0,1,1-.968-.968A.965.965,0,0,1,13.376,6.01Zm2.748.982A4.789,4.789,0,0,0,14.816,3.6a4.82,4.82,0,0,0-3.391-1.307c-1.336-.076-5.34-.076-6.676,0A4.814,4.814,0,0,0,1.359,3.6,4.8,4.8,0,0,0,.052,6.989c-.076,1.336-.076,5.34,0,6.676a4.789,4.789,0,0,0,1.307,3.391,4.827,4.827,0,0,0,3.391,1.307c1.336.076,5.34.076,6.676,0a4.789,4.789,0,0,0,3.391-1.307,4.82,4.82,0,0,0,1.307-3.391c.076-1.336.076-5.337,0-6.673ZM14.4,15.1a2.731,2.731,0,0,1-1.538,1.538c-1.065.422-3.593.325-4.77.325s-3.708.094-4.77-.325A2.731,2.731,0,0,1,1.781,15.1c-.422-1.065-.325-3.593-.325-4.77s-.094-3.708.325-4.77A2.731,2.731,0,0,1,3.319,4.021C4.385,3.6,6.912,3.7,8.089,3.7s3.708-.094,4.77.325A2.731,2.731,0,0,1,14.4,5.559c.422,1.065.325,3.593.325,4.77S14.82,14.037,14.4,15.1Z" transform="translate(0.005 -2.238)" fill="#fff"/>
</svg>
