<svg id="Icon_ionic-ios-star-outline" data-name="Icon ionic-ios-star-outline" xmlns="http://www.w3.org/2000/svg" width="47.636" height="44.234" viewBox="0 0 47.636 44.234">
  <path id="Icon_ionic-ios-star-outline-2" data-name="Icon ionic-ios-star-outline" d="M48.079,18.687H32.437L27.684,4.5a1.722,1.722,0,0,0-3.232,0L19.7,18.687H3.951a1.706,1.706,0,0,0-1.7,1.7,1.25,1.25,0,0,0,.032.287,1.635,1.635,0,0,0,.712,1.2L15.85,30.936,10.916,45.28a1.706,1.706,0,0,0,.585,1.914,1.645,1.645,0,0,0,.957.415,2.085,2.085,0,0,0,1.063-.383l12.547-8.942,12.547,8.942a1.992,1.992,0,0,0,1.063.383,1.528,1.528,0,0,0,.946-.415,1.685,1.685,0,0,0,.585-1.914L36.276,30.936l12.749-9.144.308-.266a1.784,1.784,0,0,0,.553-1.138A1.8,1.8,0,0,0,48.079,18.687ZM34.553,28.522A2.986,2.986,0,0,0,33.469,31.9l3.2,9.325a.427.427,0,0,1-.649.489l-8.23-5.869a2.971,2.971,0,0,0-1.733-.553,2.916,2.916,0,0,0-1.723.553L16.1,41.707a.425.425,0,0,1-.649-.489l3.2-9.325a3,3,0,0,0-1.1-3.4L8.949,22.419a.428.428,0,0,1,.245-.776H19.688a2.973,2.973,0,0,0,2.818-2.031l3.147-9.378a.428.428,0,0,1,.808,0l3.147,9.378a2.973,2.973,0,0,0,2.818,2.031H42.773a.421.421,0,0,1,.245.766Z" transform="translate(-2.25 -3.375)" fill="#c1c1c1"/>
</svg>
