<svg xmlns="http://www.w3.org/2000/svg" width="24" height="33" viewBox="0 0 24 33">
  <path id="Icon_material-developer-mode" data-name="Icon material-developer-mode" d="M10.5,7.5h15v3h3v-6a3,3,0,0,0-3-2.985L10.5,1.5a3.009,3.009,0,0,0-3,3v6h3ZM23.115,24.885,30,18l-6.885-6.885L21,13.245,25.755,18,21,22.755l2.115,2.13ZM15,22.755,10.245,18,15,13.245l-2.115-2.13L6,18l6.885,6.885ZM25.5,28.5h-15v-3h-3v6a3.009,3.009,0,0,0,3,3h15a3.009,3.009,0,0,0,3-3v-6h-3Z" transform="translate(-6 -1.5)" opacity="0.37"/>
</svg>
