<svg xmlns="http://www.w3.org/2000/svg" width="13.577" height="13.577" viewBox="0 0 13.577 13.577">
  <path id="Icon_feather-message-circle" data-name="Icon feather-message-circle" d="M17.077,10.439a5.855,5.855,0,0,1-.629,2.655,5.939,5.939,0,0,1-5.31,3.284,5.855,5.855,0,0,1-2.655-.629L4.5,17.077l1.328-3.983A5.855,5.855,0,0,1,5.2,10.439a5.939,5.939,0,0,1,3.284-5.31A5.855,5.855,0,0,1,11.138,4.5h.349a5.925,5.925,0,0,1,5.59,5.59Z" transform="translate(-4 -4)" fill="#fff" stroke="#9b9b9b" stroke-linecap="round" stroke-linejoin="round" stroke-width="1"/>
</svg>
