<svg xmlns="http://www.w3.org/2000/svg" width="60" height="52.5" viewBox="0 0 60 52.5">
  <path id="Icon_awesome-quote-right" data-name="Icon awesome-quote-right" d="M54.375,2.25h-15A5.626,5.626,0,0,0,33.75,7.875v15A5.626,5.626,0,0,0,39.375,28.5H48.75V36a7.507,7.507,0,0,1-7.5,7.5h-.937A2.806,2.806,0,0,0,37.5,46.312v5.625a2.806,2.806,0,0,0,2.813,2.813h.938A18.745,18.745,0,0,0,60,36V7.875A5.626,5.626,0,0,0,54.375,2.25Zm-33.75,0h-15A5.626,5.626,0,0,0,0,7.875v15A5.626,5.626,0,0,0,5.625,28.5H15V36a7.507,7.507,0,0,1-7.5,7.5H6.563A2.806,2.806,0,0,0,3.75,46.312v5.625A2.806,2.806,0,0,0,6.563,54.75H7.5A18.745,18.745,0,0,0,26.25,36V7.875A5.626,5.626,0,0,0,20.625,2.25Z" transform="translate(0 -2.25)" fill="#cecece"/>
</svg>
