<svg xmlns="http://www.w3.org/2000/svg" width="18.487" height="15.015" viewBox="0 0 18.487 15.015">
  <path id="Icon_awesome-twitter" data-name="Icon awesome-twitter" d="M16.587,7.123c.012.164.012.328.012.493A10.707,10.707,0,0,1,5.818,18.4,10.707,10.707,0,0,1,0,16.7a7.838,7.838,0,0,0,.915.047,7.588,7.588,0,0,0,4.7-1.619A3.8,3.8,0,0,1,2.076,12.5a4.778,4.778,0,0,0,.716.059,4.007,4.007,0,0,0,1-.129A3.79,3.79,0,0,1,.751,8.706V8.66a3.816,3.816,0,0,0,1.713.481A3.795,3.795,0,0,1,1.29,4.073,10.77,10.77,0,0,0,9.1,8.038a4.277,4.277,0,0,1-.094-.868,3.793,3.793,0,0,1,6.557-2.592,7.46,7.46,0,0,0,2.4-.915A3.779,3.779,0,0,1,16.306,5.75a7.6,7.6,0,0,0,2.182-.587,8.145,8.145,0,0,1-1.9,1.959Z" transform="translate(0 -3.381)" fill="#fff"/>
</svg>
