<svg id="Icon_ionic-ios-checkmark-circle-outline" data-name="Icon ionic-ios-checkmark-circle-outline" xmlns="http://www.w3.org/2000/svg" width="47.783" height="47.783" viewBox="0 0 47.783 47.783">
  <path id="Path_345" data-name="Path 345" d="M35.038,14.423l-2.022-2.079a.435.435,0,0,0-.322-.138h0a.417.417,0,0,0-.322.138L18.36,26.461l-5.1-5.1a.444.444,0,0,0-.643,0l-2.045,2.045a.458.458,0,0,0,0,.655L17,30.492a2.034,2.034,0,0,0,1.344.655,2.132,2.132,0,0,0,1.332-.632h.011L35.049,15.078A.491.491,0,0,0,35.038,14.423Z" transform="translate(1.098 2.22)" fill="#c1c1c1"/>
  <path id="Path_346" data-name="Path 346" d="M27.266,6.591a20.679,20.679,0,0,1,14.622,35.3A20.679,20.679,0,0,1,12.644,12.644,20.538,20.538,0,0,1,27.266,6.591m0-3.216A23.891,23.891,0,1,0,51.158,27.266,23.888,23.888,0,0,0,27.266,3.375Z" transform="translate(-3.375 -3.375)" fill="#c1c1c1"/>
</svg>
