<svg xmlns="http://www.w3.org/2000/svg" width="13.311" height="12.799" viewBox="0 0 13.311 12.799">
  <path id="Icon_ionic-ios-heart-empty" data-name="Icon ionic-ios-heart-empty" d="M13.1,3.938H13.07A3.641,3.641,0,0,0,10.03,5.6a3.641,3.641,0,0,0-3.04-1.664H6.959A3.618,3.618,0,0,0,3.375,7.553,7.789,7.789,0,0,0,4.9,11.8a26.8,26.8,0,0,0,5.126,4.937A26.8,26.8,0,0,0,15.156,11.8a7.789,7.789,0,0,0,1.529-4.246A3.618,3.618,0,0,0,13.1,3.938Zm1.331,7.334a24.541,24.541,0,0,1-4.4,4.339,24.578,24.578,0,0,1-4.4-4.342A6.9,6.9,0,0,1,4.271,7.553,2.715,2.715,0,0,1,6.965,4.837h.029a2.683,2.683,0,0,1,1.315.346,2.8,2.8,0,0,1,.973.912.9.9,0,0,0,1.5,0,2.824,2.824,0,0,1,.973-.912,2.683,2.683,0,0,1,1.315-.346H13.1A2.715,2.715,0,0,1,15.8,7.553,6.99,6.99,0,0,1,14.433,11.271Z" transform="translate(-3.375 -3.938)" fill="#ababab"/>
</svg>
