<svg xmlns="http://www.w3.org/2000/svg" width="31.507" height="29.257" viewBox="0 0 31.507 29.257">
  <g id="Icon_ionic-md-analytics" data-name="Icon ionic-md-analytics" transform="translate(-2.25 -3.375)" opacity="0.33">
    <path id="Path_341" data-name="Path 341" d="M26.677,12.537l-6.131,9.38a3.34,3.34,0,0,1,.759,2.13,3.375,3.375,0,0,1-6.75,0,3.7,3.7,0,0,1,.056-.626l-4.05-2.355a3.354,3.354,0,0,1-2.341.942,3.394,3.394,0,0,1-1.659-.436L2.25,25.608V29.63a3.01,3.01,0,0,0,3,3h25.5a3.01,3.01,0,0,0,3-3V14.681l-4.12-2.735a3.373,3.373,0,0,1-2.96.591Z"/>
    <path id="Path_342" data-name="Path 342" d="M8.227,15.258A3.376,3.376,0,0,1,11.6,18.633c0,.148-.014.3-.028.436L15.8,21.431a3.345,3.345,0,0,1,2.138-.759,3.531,3.531,0,0,1,.731.077l6.145-9.52a3.339,3.339,0,0,1-.626-1.955,3.375,3.375,0,0,1,6.75,0,3.668,3.668,0,0,1-.091.795l2.9,1.941V6.377a3.01,3.01,0,0,0-3-3H5.252a3.01,3.01,0,0,0-3,3V22.5l2.813-2.693a3.375,3.375,0,0,1,3.164-4.549Z"/>
  </g>
</svg>
