<svg xmlns="http://www.w3.org/2000/svg" xmlns:xlink="http://www.w3.org/1999/xlink" width="210.864" height="70" viewBox="0 0 210.864 70">
  <defs>
    <clipPath id="clip-path">
      <rect id="Rectangle_2" data-name="Rectangle 2" width="210.864" height="70" transform="translate(39)" fill="#fff" stroke="#707070" stroke-width="1"/>
    </clipPath>
  </defs>
  <g id="Logo" transform="translate(-39)" clip-path="url(#clip-path)">
    <g id="social-pulsar-light" transform="translate(39 12.613)">
      <g id="Group_13" data-name="Group 13" transform="translate(38.478 15.169)">
        <g id="Group_1" data-name="Group 1" transform="translate(0 1.276)">
          <path id="Path_1" data-name="Path 1" d="M46.1,38.2l.709-1.134a9.82,9.82,0,0,0,6.663,2.552c4.111,0,5.954-1.843,5.954-3.969,0-6.1-12.759-2.41-12.759-9.924,0-2.835,2.268-5.387,7.23-5.387a10.7,10.7,0,0,1,6.1,1.843l-.567,1.134a10.475,10.475,0,0,0-5.529-1.7c-3.969,0-5.671,1.843-5.671,4.111,0,6.1,12.759,2.552,12.759,9.924,0,2.835-2.268,5.387-7.372,5.387C50.491,40.9,47.513,39.763,46.1,38.2Z" transform="translate(-45.671 -20.199)" fill="#fff"/>
          <path id="Path_2" data-name="Path 2" d="M53.4,41.158c-2.977,0-6.1-1.134-7.655-2.835l-.142-.142.851-1.559.284.284a9.09,9.09,0,0,0,6.521,2.552c3.544,0,5.671-1.418,5.671-3.686,0-2.694-2.835-3.4-5.671-4.111-3.261-.851-7.088-1.7-7.088-5.812,0-2.694,1.985-5.671,7.514-5.671a11.168,11.168,0,0,1,6.238,1.843l.142.142-.709,1.559-.284-.142a9.451,9.451,0,0,0-5.529-1.7c-3.4,0-5.529,1.418-5.529,3.828,0,2.694,2.835,3.4,5.671,4.111,3.261.851,6.946,1.7,6.946,5.812C60.914,39.741,56.945,41.158,53.4,41.158Z" transform="translate(-45.604 -20.177)" fill="#fff"/>
        </g>
        <g id="Group_2" data-name="Group 2" transform="translate(17.862 6.379)">
          <path id="Path_3" data-name="Path 3" d="M66.437,34.066a7.37,7.37,0,0,1,7.655-7.655,7.452,7.452,0,0,1,7.655,7.655,7.655,7.655,0,0,1-15.311,0Zm13.751,0c0-3.828-2.552-6.379-6.1-6.379S68,30.238,68,34.066s2.552,6.379,6.1,6.379S80.188,37.894,80.188,34.066Z" transform="translate(-66.295 -26.127)" fill="#fff"/>
          <path id="Path_4" data-name="Path 4" d="M74.07,41.96a7.636,7.636,0,0,1-7.8-7.939,7.556,7.556,0,0,1,7.8-7.939,7.636,7.636,0,0,1,7.8,7.939A7.636,7.636,0,0,1,74.07,41.96Zm0-14.176c-3.4,0-5.812,2.552-5.812,6.238s2.41,6.238,5.812,6.238,5.812-2.552,5.812-6.238S77.472,27.784,74.07,27.784Z" transform="translate(-66.273 -26.083)" fill="#fff"/>
        </g>
        <g id="Group_3" data-name="Group 3" transform="translate(35.866 6.379)">
          <path id="Path_5" data-name="Path 5" d="M87.434,34.066a7.37,7.37,0,0,1,7.655-7.655,6.874,6.874,0,0,1,5.812,2.835l-1.134.567a5.583,5.583,0,0,0-4.678-2.268,6.068,6.068,0,0,0-6.238,6.379A5.991,5.991,0,0,0,95.09,40.3a5.583,5.583,0,0,0,4.678-2.268l1.134.851a6.874,6.874,0,0,1-5.812,2.835A7.37,7.37,0,0,1,87.434,34.066Z" transform="translate(-87.151 -26.127)" fill="#fff"/>
          <path id="Path_6" data-name="Path 6" d="M95.045,41.96a7.752,7.752,0,0,1-7.939-7.939,7.67,7.67,0,0,1,7.939-7.939A6.958,6.958,0,0,1,101,28.918l.142.142-1.418.992-.142-.142a5.219,5.219,0,0,0-4.536-2.126c-3.544,0-5.954,2.552-5.954,6.238s2.41,6.238,5.954,6.238a5.219,5.219,0,0,0,4.536-2.126l.142-.142,1.418.992H101A7.065,7.065,0,0,1,95.045,41.96Z" transform="translate(-87.106 -26.083)" fill="#fff"/>
        </g>
        <g id="Group_4" data-name="Group 4" transform="translate(53.304 0.425)">
          <path id="Path_7" data-name="Path 7" d="M107.448,20.655a1.134,1.134,0,1,1,1.134,1.134A1.22,1.22,0,0,1,107.448,20.655Zm.425,4.82h1.418V40.644h-1.418Z" transform="translate(-107.306 -19.237)" fill="#fff"/>
          <path id="Path_8" data-name="Path 8" d="M109.552,40.883h-1.985V25.147h1.985ZM108.7,22.028a1.339,1.339,0,0,1-1.418-1.418,1.418,1.418,0,0,1,2.835,0A1.525,1.525,0,0,1,108.7,22.028Z" transform="translate(-107.284 -19.193)" fill="#fff"/>
        </g>
        <g id="Group_5" data-name="Group 5" transform="translate(59.966 6.238)">
          <path id="Path_9" data-name="Path 9" d="M127.633,31.938v9.64h-1.418V38.885a6.011,6.011,0,0,1-5.529,2.835c-3.4,0-5.529-1.7-5.529-4.395,0-2.268,1.418-4.253,5.671-4.253h5.245V31.938c0-2.835-1.559-4.395-4.536-4.395a7.934,7.934,0,0,0-5.245,1.985l-.709-.992a9.618,9.618,0,0,1,6.1-2.126C125.506,26.268,127.633,28.253,127.633,31.938Zm-1.559,5.245V34.348h-5.245c-3.119,0-4.253,1.276-4.253,3.119,0,1.985,1.559,3.261,4.253,3.261A5.483,5.483,0,0,0,126.073,37.184Z" transform="translate(-115.016 -25.984)" fill="#fff"/>
          <path id="Path_10" data-name="Path 10" d="M120.664,41.938c-3.4,0-5.671-1.843-5.671-4.536,0-1.7.709-4.536,5.954-4.536h4.962v-.992c0-2.694-1.418-4.111-4.253-4.111a7.741,7.741,0,0,0-5.1,1.843l-.284.142-.992-1.418.142-.142a9.341,9.341,0,0,1,6.238-2.268c3.969,0,6.1,2.126,6.1,5.954V41.8h-1.843V39.67A6.522,6.522,0,0,1,120.664,41.938Zm.284-7.514c-2.694,0-3.969.992-3.969,2.835s1.559,2.977,3.969,2.977a4.955,4.955,0,0,0,4.962-3.261V34.425h-4.962Z" transform="translate(-114.993 -25.919)" fill="#fff"/>
        </g>
        <g id="Group_6" data-name="Group 6" transform="translate(78.254)">
          <path id="Path_11" data-name="Path 11" d="M136.483,19.029H137.9V40.577h-1.418Z" transform="translate(-136.199 -18.745)" fill="#fff"/>
          <path id="Path_12" data-name="Path 12" d="M138.14,40.816h-1.985V18.7h1.985Z" transform="translate(-136.155 -18.701)" fill="#fff"/>
        </g>
        <g id="Group_7" data-name="Group 7" transform="translate(86.335 1.276)">
          <path id="Path_13" data-name="Path 13" d="M161.286,27.288c0,4.253-3.119,6.8-8.222,6.8h-5.812v6.663h-1.418V20.341h7.23C158.309,20.341,161.286,22.893,161.286,27.288Zm-1.418,0c0-3.544-2.268-5.529-6.663-5.529h-5.812V32.817h5.671C157.458,32.817,159.868,30.832,159.868,27.288Z" transform="translate(-145.55 -20.199)" fill="#fff"/>
          <path id="Path_14" data-name="Path 14" d="M147.49,41.017h-1.985V20.177h7.514c5.245,0,8.506,2.694,8.506,7.088s-3.119,7.088-8.506,7.088H147.49Zm0-8.506h5.529c4.111,0,6.521-1.843,6.521-5.245s-2.268-5.245-6.521-5.245H147.49Z" transform="translate(-145.505 -20.177)" fill="#fff"/>
        </g>
        <g id="Group_8" data-name="Group 8" transform="translate(106.607 6.521)">
          <path id="Path_15" data-name="Path 15" d="M182.6,26.411V41.58h-1.418V38.319a6.04,6.04,0,0,1-5.671,3.4c-3.828,0-6.379-2.126-6.379-6.379V26.411h1.418V35.2c0,3.4,1.843,5.245,4.962,5.245,3.4,0,5.529-2.268,5.529-5.954V26.411H182.6Z" transform="translate(-168.986 -26.269)" fill="#fff"/>
          <path id="Path_16" data-name="Path 16" d="M175.484,41.983c-4.253,0-6.521-2.41-6.521-6.663V26.247h1.985V35.32c0,3.261,1.7,4.962,4.82,4.962,3.261,0,5.387-2.126,5.387-5.671V26.247h1.985V41.841H181.3V39.289A7.341,7.341,0,0,1,175.484,41.983Z" transform="translate(-168.963 -26.247)" fill="#fff"/>
        </g>
        <g id="Group_9" data-name="Group 9" transform="translate(126.171)">
          <path id="Path_17" data-name="Path 17" d="M191.929,19.029h1.418V40.577h-1.418Z" transform="translate(-191.646 -18.745)" fill="#fff"/>
          <path id="Path_18" data-name="Path 18" d="M193.586,40.816H191.6V18.7h1.985Z" transform="translate(-191.601 -18.701)" fill="#fff"/>
        </g>
        <g id="Group_10" data-name="Group 10" transform="translate(131.558 6.379)">
          <path id="Path_19" data-name="Path 19" d="M198.163,39.737l.709-1.134a8.873,8.873,0,0,0,5.529,1.843c3.261,0,4.536-1.134,4.536-2.835,0-4.395-10.065-1.134-10.065-7.088,0-2.268,1.985-4.111,5.812-4.111a9.932,9.932,0,0,1,5.245,1.418l-.709,1.134a7.491,7.491,0,0,0-4.536-1.418c-2.977,0-4.253,1.276-4.253,2.835,0,4.536,10.065,1.276,10.065,7.088,0,2.41-2.126,4.111-5.954,4.111C201.707,41.721,199.3,40.871,198.163,39.737Z" transform="translate(-197.879 -26.127)" fill="#fff"/>
          <path id="Path_20" data-name="Path 20" d="M204.214,41.96a10.225,10.225,0,0,1-6.238-1.985l-.142-.142.851-1.559.284.142a8.629,8.629,0,0,0,5.387,1.843q4.253,0,4.253-2.552c0-1.843-1.985-2.268-4.253-2.694-2.694-.567-5.812-1.134-5.812-4.536,0-2.694,2.41-4.395,5.954-4.395a9.3,9.3,0,0,1,5.387,1.559l.142.142-.851,1.559-.142-.142a7.325,7.325,0,0,0-4.395-1.276c-2.552,0-4.111.992-4.111,2.552,0,1.985,1.985,2.41,4.395,2.835,2.694.567,5.671,1.134,5.671,4.395C210.452,40.259,208.042,41.96,204.214,41.96Z" transform="translate(-197.835 -26.083)" fill="#fff"/>
        </g>
        <g id="Group_11" data-name="Group 11" transform="translate(146.443 6.238)">
          <path id="Path_21" data-name="Path 21" d="M227.534,31.938v9.64h-1.418V38.885a6.011,6.011,0,0,1-5.529,2.835c-3.4,0-5.529-1.7-5.529-4.395,0-2.268,1.418-4.253,5.671-4.253h5.245V31.938c0-2.835-1.559-4.395-4.536-4.395a7.934,7.934,0,0,0-5.245,1.985l-.709-.992a9.618,9.618,0,0,1,6.1-2.126C225.55,26.268,227.534,28.253,227.534,31.938Zm-1.418,5.245V34.348h-5.245c-3.119,0-4.253,1.276-4.253,3.119,0,1.985,1.559,3.261,4.253,3.261A5.625,5.625,0,0,0,226.117,37.184Z" transform="translate(-215.059 -25.984)" fill="#fff"/>
          <path id="Path_22" data-name="Path 22" d="M220.73,41.938c-3.4,0-5.671-1.843-5.671-4.536,0-1.7.709-4.536,5.954-4.536h4.962v-.992c0-2.694-1.418-4.111-4.253-4.111a7.741,7.741,0,0,0-5.1,1.843l-.142.142-.992-1.418.142-.142a9.341,9.341,0,0,1,6.238-2.268c3.969,0,6.1,2.126,6.1,5.954V41.8h-1.843V39.67A7.036,7.036,0,0,1,220.73,41.938Zm.142-7.514c-2.694,0-3.969.992-3.969,2.835s1.559,2.977,3.969,2.977a4.955,4.955,0,0,0,4.962-3.261V34.425h-4.962Z" transform="translate(-215.059 -25.919)" fill="#fff"/>
        </g>
        <g id="Group_12" data-name="Group 12" transform="translate(164.731 6.238)">
          <path id="Path_23" data-name="Path 23" d="M243.637,26.247v1.418h-.284c-3.4,0-5.387,2.268-5.387,5.954v7.939h-1.418V26.388h1.418v3.261C238.817,27.523,240.8,26.247,243.637,26.247Z" transform="translate(-236.265 -25.963)" fill="#fff"/>
          <path id="Path_24" data-name="Path 24" d="M238.205,41.8h-1.985V26.06h1.843v2.552a6.245,6.245,0,0,1,5.529-2.694h.284v1.843h-.567c-3.261,0-5.1,2.126-5.1,5.812V41.8Z" transform="translate(-236.221 -25.919)" fill="#fff"/>
        </g>
      </g>
      <path id="Path_25" data-name="Path 25" d="M35.871,33.305a21.536,21.536,0,0,0-1.418-6.663c-1.134-3.119-4.111-4.253-7.23-3.544a47.945,47.945,0,0,0-4.82,1.559,10.546,10.546,0,0,1-7.514.142c-1.7-.567-3.544-1.134-5.245-1.559a5.681,5.681,0,0,0-6.8,2.977,9.211,9.211,0,0,0-1.276,3.261,20.229,20.229,0,0,0,3.4,16.3,8.115,8.115,0,0,0,2.268,2.126,2.559,2.559,0,0,0,3.119-.142A27.021,27.021,0,0,1,6.242,37.7a14.369,14.369,0,0,1,.709-8.789,7.791,7.791,0,0,1,.992-1.276c-.142,1.7-.851,3.119-.992,4.536-.709,5.387.992,10.065,3.828,14.6.425.709.851.709,1.559.425a15.744,15.744,0,0,1,12.9.142,1.087,1.087,0,0,0,1.7-.567,56.223,56.223,0,0,0,3.119-7.514c1.134-3.544,1.276-7.23-.709-10.632-.142-.142,0-.425,0-.851,3.544,2.835,2.552,11.341-2.268,20.272,2.268,1.276,3.828,1.134,5.387-.851a14.284,14.284,0,0,0,1.7-3.261A27.864,27.864,0,0,0,35.871,33.305Z" transform="translate(-1.079 -4.101)" fill="#fff"/>
      <path id="Path_26" data-name="Path 26" d="M28.073,8.378A59,59,0,0,0,20.984,6.11a1.271,1.271,0,0,1-1.276-1.276c-.142-1.276-.425-2.552-.567-3.686h-.284a23.538,23.538,0,0,0-.425,3.119c0,1.276-.567,1.843-1.985,1.985A14.085,14.085,0,0,0,9.076,9.229a3.866,3.866,0,0,0-1.418,4.82,9.477,9.477,0,0,0,4.678,5.245c4.111,2.126,8.364,1.843,12.759.425a7.91,7.91,0,0,0,5.387-5.954C31.191,11.214,30.483,9.371,28.073,8.378ZM14.747,17.735h8.222C21.835,19.578,16.59,19.578,14.747,17.735Zm10.774-4.82a15.675,15.675,0,0,0-12.617,0,1.781,1.781,0,0,1-2.268-1.134s-.142-.992.425-1.418c0,0,6.663-4.111,15.452,0C26.371,10.221,28.073,12.064,25.521,12.915Z" transform="translate(-1.928 -1.148)" fill="#fff"/>
    </g>
  </g>
</svg>
