<?xml version="1.0" encoding="utf-8"?>
<!-- Generator: Adobe Illustrator 16.0.0, SVG Export Plug-In . SVG Version: 6.00 Build 0)  -->
<!DOCTYPE svg PUBLIC "-//W3C//DTD SVG 1.0//EN" "http://www.w3.org/TR/2001/REC-SVG-20010904/DTD/svg10.dtd">
<svg version="1.0" id="Layer_1" xmlns="http://www.w3.org/2000/svg" xmlns:xlink="http://www.w3.org/1999/xlink" x="0px" y="0px"
	 width="500.799px" height="743.11px" viewBox="0 0 500.799 743.11" enable-background="new 0 0 500.799 743.11"
	 xml:space="preserve">
<pattern  x="-72.278" y="754.695" width="950" height="679" patternUnits="userSpaceOnUse" id="pattern" viewBox="0.001 -679 950 679" overflow="visible">
	<g>
		<polygon fill="none" points="0.001,0 950.001,0 950.001,-679 0.001,-679 		"/>
		
			<image overflow="visible" enable-background="new    " width="950" height="679" xlink:href="9B3EBBA8.png"  transform="matrix(1 0 0 -1 0 0)">
		</image>
	</g>
</pattern>
<g>
	<path id="Rectangle_18_3_" opacity="0.8" fill="#F4F4F4" d="M102.846,24.489H410.29c25.474,0,46.118,19.018,46.118,42.477V674.22
		c0,23.458-20.645,42.475-46.118,42.475H102.846c-25.471,0-46.118-19.017-46.118-42.475V66.966
		C56.728,43.507,77.375,24.489,102.846,24.489z"/>
	<path id="Rectangle_18_2_" opacity="0.8" fill="#EAEAEA" d="M111.609,31.624h289.917c24.021,0,43.489,18.61,43.489,41.569v594.269
		c0,22.956-19.468,41.566-43.489,41.566H111.609c-24.019,0-43.489-18.61-43.489-41.566V73.193
		C68.121,50.234,87.59,31.624,111.609,31.624z"/>
	<path id="Rectangle_18_1_" opacity="0.5" fill="#CCCCCC" d="M117.902,33.094H394.95c22.953,0,41.559,18.468,41.559,41.25v589.717
		c0,22.781-18.605,41.248-41.559,41.248H117.902c-22.953,0-41.558-18.467-41.558-41.248V74.344
		C76.345,51.562,94.95,33.094,117.902,33.094z"/>
	<g id="Group_273" transform="translate(-154.557 -1596.879)">
		<g id="Group_155" transform="translate(-30.629 -19.121)">
			<g id="Group_150" transform="translate(185.186 1616)">
				<path id="Rectangle_18" fill="#FFFFFF" d="M120.485,35.277h273.331c22.645,0,41,18.356,41,41v586.142c0,22.645-18.355,41-41,41
					H120.485c-22.644,0-41-18.355-41-41V76.277C79.485,53.634,97.841,35.277,120.485,35.277z"/>
				
					<linearGradient id="Rectangle_20_1_" gradientUnits="userSpaceOnUse" x1="-71.4526" y1="754.4937" x2="-71.4526" y2="753.4937" gradientTransform="matrix(298.64 0 0 -605.378 21595.6719 456819.8125)">
					<stop  offset="0" style="stop-color:#E9B4FF"/>
					<stop  offset="1" style="stop-color:#135FB7"/>
				</linearGradient>
				<path id="Rectangle_20" fill="url(#Rectangle_20_1_)" d="M133.83,66.659h246.64c14.359,0,26,11.641,26,26v553.377
					c0,14.359-11.641,26-26,26H133.83c-14.36,0-26-11.641-26-26V92.659C107.83,78.3,119.47,66.659,133.83,66.659z"/>
				<g id="Group_132" transform="translate(0 311.8)">
					<g id="Group_123" transform="translate(147.485)">
						<g id="Group_120" transform="translate(50.197 29.172)">
							
								<linearGradient id="Path_322_1_" gradientUnits="userSpaceOnUse" x1="-267.4706" y1="412.1096" x2="-267.4706" y2="413.1676" gradientTransform="matrix(48.867 0 0 -242.142 13119.9111 100092.5156)">
								<stop  offset="0" style="stop-color:#00EAF9"/>
								<stop  offset="1" style="stop-color:#00BFF9"/>
							</linearGradient>
							<path id="Path_322" fill="url(#Path_322_1_)" d="M73.667,35.278l0.207,214.482l-48.66,27.66L25.007,62.938L73.667,35.278z"/>
						</g>
						<g id="Group_121" transform="translate(0 27.663)">
							
								<linearGradient id="Path_323_1_" gradientUnits="userSpaceOnUse" x1="-217.8341" y1="414.2299" x2="-216.8341" y2="414.2299" gradientTransform="matrix(50.407 0 0 -243.651 11005.3779 101084.6406)">
								<stop  offset="0" style="stop-color:#006EE6"/>
								<stop  offset="0.979" style="stop-color:#00BFF9"/>
							</linearGradient>
							<path id="Path_323" fill="url(#Path_323_1_)" d="M75.412,278.929l-50.2-29.17L25.005,35.277l50.2,29.17L75.412,278.929z"/>
						</g>
						<g id="Group_122">
							
								<linearGradient id="Path_324_1_" gradientUnits="userSpaceOnUse" x1="-218.7794" y1="440.2415" x2="-217.7794" y2="440.2415" gradientTransform="matrix(98.86 0 0 -56.832 21653.5391 25083.4941)">
								<stop  offset="0" style="stop-color:#0031BA"/>
								<stop  offset="1" style="stop-color:#0089F9"/>
							</linearGradient>
							<path id="Path_324" fill="url(#Path_324_1_)" d="M75.204,92.11l-50.2-29.17l48.66-27.662l50.2,29.172L75.204,92.11z"/>
						</g>
					</g>
					<g id="Group_127" transform="translate(75.12 115.769)">
						<g id="Group_124" transform="translate(50.194 29.172)">
							
								<linearGradient id="Path_325_1_" gradientUnits="userSpaceOnUse" x1="-195.1016" y1="296.1697" x2="-195.1016" y2="297.2437" gradientTransform="matrix(48.87 0 0 -168.174 9584.0908 50021.0391)">
								<stop  offset="0" style="stop-color:#00EAF9"/>
								<stop  offset="1" style="stop-color:#00BFF9"/>
							</linearGradient>
							<path id="Path_325" fill="url(#Path_325_1_)" d="M73.67,35.278l0.21,140.51l-48.67,27.664l-0.2-140.51L73.67,35.278z"/>
						</g>
						<g id="Group_125" transform="translate(0 27.668)">
							
								<linearGradient id="Path_326_1_" gradientUnits="userSpaceOnUse" x1="-145.4691" y1="298.2362" x2="-144.4691" y2="298.2362" gradientTransform="matrix(50.402 0 0 -169.678 7356.9307 50724.3594)">
								<stop  offset="0" style="stop-color:#006EE6"/>
								<stop  offset="0.979" style="stop-color:#00BFF9"/>
							</linearGradient>
							<path id="Path_326" fill="url(#Path_326_1_)" d="M75.409,204.956l-50.192-29.172l-0.21-140.506L75.2,64.448L75.409,204.956z"
								/>
						</g>
						<g id="Group_126">
							
								<linearGradient id="Path_327_1_" gradientUnits="userSpaceOnUse" x1="-146.4145" y1="324.4735" x2="-145.4145" y2="324.4735" gradientTransform="matrix(98.857 0 0 -56.837 14499.1465 18505.7598)">
								<stop  offset="0" style="stop-color:#0031BA"/>
								<stop  offset="1" style="stop-color:#0089F9"/>
							</linearGradient>
							<path id="Path_327" fill="url(#Path_327_1_)" d="M75.2,92.116l-50.194-29.17l48.663-27.668l50.194,29.172L75.2,92.116z"/>
						</g>
					</g>
					<g id="Group_131" transform="translate(0 226.221)">
						<g id="Group_128" transform="translate(50.197 29.17)">
							
								<linearGradient id="Path_328_1_" gradientUnits="userSpaceOnUse" x1="-119.9851" y1="185.1806" x2="-119.9851" y2="186.3266" gradientTransform="matrix(48.867 0 0 -101.1989 5912.7773 18888.1328)">
								<stop  offset="0" style="stop-color:#00EAF9"/>
								<stop  offset="1" style="stop-color:#00BFF9"/>
							</linearGradient>
							<path id="Path_328" fill="url(#Path_328_1_)" d="M73.667,35.277l0.207,73.531l-48.66,27.668l-0.207-73.537L73.667,35.277z"/>
						</g>
						<g id="Group_129" transform="translate(0 27.663)">
							
								<linearGradient id="Path_329_1_" gradientUnits="userSpaceOnUse" x1="-70.3487" y1="187.3194" x2="-69.3487" y2="187.3194" gradientTransform="matrix(50.407 0 0 -102.706 3571.0872 19325.4336)">
								<stop  offset="0" style="stop-color:#006EE6"/>
								<stop  offset="0.979" style="stop-color:#00BFF9"/>
							</linearGradient>
							<path id="Path_329" fill="url(#Path_329_1_)" d="M75.411,137.982l-50.2-29.172l-0.207-73.533l50.2,29.168L75.411,137.982z"/>
						</g>
						<g id="Group_130">
							
								<linearGradient id="Path_330_1_" gradientUnits="userSpaceOnUse" x1="-71.2945" y1="214.0215" x2="-70.2945" y2="214.0215" gradientTransform="matrix(98.86 0 0 -56.832 7073.2212 12226.9316)">
								<stop  offset="0" style="stop-color:#0031BA"/>
								<stop  offset="1" style="stop-color:#0089F9"/>
							</linearGradient>
							<path id="Path_330" fill="url(#Path_330_1_)" d="M75.204,92.109l-50.2-29.17l48.66-27.662l50.2,29.17L75.204,92.109z"/>
						</g>
					</g>
				</g>
				<path id="Rectangle_21" fill="#FFFFFF" d="M196.595,35.277h121.11c14.359,0,26,11.641,26,26v0.642c0,14.359-11.641,26-26,26
					h-121.11c-14.359,0-26-11.641-26-26v-0.642C170.595,46.918,182.235,35.277,196.595,35.277z"/>
				<g id="Group_145" transform="translate(96.644 218.094)">
					<g id="Group_136" transform="translate(68.444 24.269)">
						<path id="Path_332" fill="#127171" d="M25.007,37.262c0.027-0.667,0.04-1.328,0.038-1.984
							C25.045,35.937,25.034,36.597,25.007,37.262z"/>
					</g>
					<g id="Group_137" transform="translate(62.592 38.851)">
						<path id="Path_333" fill="#1BAFAF" d="M25.007,46.302c0.477-1.089,0.936-2.189,1.361-3.288
							c0.982-2.531,1.825-5.113,2.525-7.736c-0.695,2.626-1.538,5.211-2.525,7.743C25.938,44.121,25.484,45.215,25.007,46.302z"/>
					</g>
					<g id="Group_142" transform="translate(0 0)">
						<g id="Group_138" transform="translate(58.372 2.239)">
							<path id="Path_334" fill="#1BAFAF" d="M25.007,35.277c2.164,1.25,4.029,2.957,5.467,5
								C29.033,38.236,27.169,36.53,25.007,35.277z"/>
						</g>
						<g id="Group_139" transform="translate(51.262 0.079)">
							<path id="Path_335" fill="#1BAFAF" d="M25.007,35.277c2.499,0.195,4.925,0.933,7.11,2.161
								C29.929,36.216,27.505,35.478,25.007,35.277z"/>
						</g>
						<g id="Group_140" transform="translate(40.845)">
							<path id="Path_336" fill="#1BAFAF" d="M34.481,35.295c-2.474-0.077-4.945,0.226-7.327,0.9c-0.708,0.19-1.423,0.41-2.147,0.66
								c0.723-0.253,1.442-0.475,2.147-0.669C29.537,35.519,32.008,35.219,34.481,35.295z"/>
						</g>
						<g id="Group_141" transform="translate(0 4.696)">
							
								<linearGradient id="Path_337_1_" gradientUnits="userSpaceOnUse" x1="-167.3564" y1="529.9371" x2="-166.3569" y2="529.9371" gradientTransform="matrix(62.089 0 0 -83.3768 10415.9854 44261.4141)">
								<stop  offset="0" style="stop-color:#006EE6"/>
								<stop  offset="0.979" style="stop-color:#00BFF9"/>
							</linearGradient>
							<path id="Path_337" fill="url(#Path_337_1_)" d="M59.13,35.277l0.108,37.932l27.856,8.365
								c-1.074,2.342-2.265,4.647-3.557,6.889c-2.089,3.626-4.454,7.086-7.076,10.349c-2.498,3.129-5.256,6.042-8.245,8.706
								c-2.73,2.441-5.7,4.602-8.862,6.45c-2.78,1.642-5.761,2.915-8.869,3.788c-2.686,0.761-5.485,1.041-8.268,0.829
								c-5.057-0.372-9.678-3.001-12.58-7.16c-1.583-2.285-2.749-4.833-3.444-7.524c-0.812-3.104-1.211-6.3-1.187-9.508
								c0.009-3.647,0.387-7.284,1.128-10.855c0.808-3.912,1.943-7.75,3.395-11.472c3.048-7.802,7.261-15.096,12.494-21.636
								c2.499-3.128,5.258-6.041,8.247-8.706C53.003,39.288,55.971,37.128,59.13,35.277z"/>
						</g>
					</g>
					<g id="Group_143" transform="translate(63.84 7.239)">
						<path id="Path_338" fill="#1BAFAF" d="M25.007,35.277c0.92,1.298,1.694,2.694,2.305,4.163
							C26.696,37.974,25.923,36.578,25.007,35.277z"/>
					</g>
					<g id="Group_144" transform="translate(34.124 0.001)">
						
							<linearGradient id="Path_339_1_" gradientUnits="userSpaceOnUse" x1="-200.6821" y1="532.9153" x2="-198.8975" y2="534.4246" gradientTransform="matrix(34.3596 0 0 -50.9856 6904.3574 27271.7598)">
							<stop  offset="0" style="stop-color:#0031BA"/>
							<stop  offset="1" style="stop-color:#0089F9"/>
						</linearGradient>
						<path id="Path_339" fill="url(#Path_339_1_)" d="M25.01,39.972c2.138-1.249,4.388-2.293,6.722-3.119
							c0.723-0.251,1.442-0.47,2.147-0.66c2.529-0.719,5.16-1.014,7.786-0.875c0.16,0.009,0.323,0.023,0.484,0.038
							c5.059,0.364,9.682,2.996,12.578,7.16c0.917,1.3,1.69,2.696,2.305,4.163c0.457,1.089,0.841,2.207,1.15,3.347
							c0.807,3.107,1.206,6.307,1.187,9.517c0,0.66-0.013,1.323-0.038,1.987c-0.13,2.979-0.495,5.944-1.092,8.866
							c-0.25,1.243-0.542,2.486-0.875,3.731c-0.7,2.623-1.543,5.206-2.525,7.736c-0.425,1.1-0.884,2.2-1.361,3.288
							c-0.163,0.375-0.33,0.746-0.5,1.119l-27.861-8.367L25.01,39.972z"/>
					</g>
				</g>
				<g id="Group_135" transform="translate(18.638 364.204)">
					<g id="Group_134" transform="translate(0 0)">
						<g id="Group_133">
							
								<linearGradient id="Path_331_1_" gradientUnits="userSpaceOnUse" x1="-90.2025" y1="388.2955" x2="-89.3225" y2="389.0455" gradientTransform="matrix(104.633 0 0 -117.424 9440.6201 45765.9023)">
								<stop  offset="0" style="stop-color:#006EE6"/>
								<stop  offset="0.979" style="stop-color:#00BFF9"/>
							</linearGradient>
							<path id="Path_331" fill="url(#Path_331_1_)" d="M106.787,53.811l22.857-18.533l-4.562,28.959l-6.722-3.824l-12.9,22.351
								l-9.962-5.675l-29.087,50.383l-16.923-9.643l-20.13,34.873l-4.347-2.48l24.453-42.357l16.923,9.637l29.086-50.379
								l9.962,5.677l8.582-14.865L106.787,53.811z"/>
						</g>
					</g>
				</g>
				<g>
					<defs>
						<path id="SVGID_1_" d="M133.83,66.659h246.64c14.359,0,26,11.641,26,26v553.377c0,14.359-11.641,26-26,26H133.83
							c-14.36,0-26-11.641-26-26V92.659C107.83,78.3,119.47,66.659,133.83,66.659z"/>
					</defs>
					<clipPath id="SVGID_2_">
						<use xlink:href="#SVGID_1_"  overflow="visible"/>
					</clipPath>
					<g id="Mask_Group_1" transform="translate(82.823 31.382)" clip-path="url(#SVGID_2_)">
						<g id="Group_146" transform="translate(-22.271 41.476)">
							<g id="Group_119" transform="translate(0 0)">
								<g id="Group_65" transform="translate(0 429.303)" opacity="0.45">
									
										<pattern  id="Rectangle_22_1_" xlink:href="#pattern" patternTransform="matrix(0.3605 0 0 -0.3594 -4843.8486 -12183.9209)"  opacity="0.45">
									</pattern>
									<rect id="Rectangle_22" x="25.007" y="35.278" fill="url(#Rectangle_22_1_)" width="342.513" height="244.031"/>
								</g>
								
									<linearGradient id="Path_249_1_" gradientUnits="userSpaceOnUse" x1="-132.1526" y1="680.5887" x2="-131.7166" y2="681.2357" gradientTransform="matrix(237.274 0 0 -302.228 31549.3535 206180.7813)">
									<stop  offset="0" style="stop-color:#FFFFFF;stop-opacity:0"/>
									<stop  offset="1" style="stop-color:#FFFFFF"/>
								</linearGradient>
								<path id="Path_249" fill="url(#Path_249_1_)" d="M366.646,364.944l-0.5,170.244L129.372,403.206l0.5-170.245
									L366.646,364.944z"/>
								<g id="Group_118" transform="translate(73.252 0)">
									<g id="Group_89" transform="translate(28.599 194.325)">
										
											<linearGradient id="Path_287_1_" gradientUnits="userSpaceOnUse" x1="-233.4997" y1="486.2803" x2="-233.4997" y2="487.0783" gradientTransform="matrix(142.667 0 0 -355.4497 33409.6016 173198.9375)">
											<stop  offset="0" style="stop-color:#FFFFFF"/>
											<stop  offset="1" style="stop-color:#FFFFFF;stop-opacity:0"/>
										</linearGradient>
										<path id="Path_287" fill="url(#Path_287_1_)" d="M25.551,35.282v314.321c0.077,2.27,1.64,4.521,4.633,6.236l55.814,32.232
											c6.157,3.547,16.089,3.547,22.208,0l55.455-32.232c2.954-1.715,4.479-3.945,4.557-6.176V35.282H25.551z"/>
										<path id="Path_288" fill="#8DFFF9" d="M164.089,342.93c6.199,3.58,6.229,9.381,0.071,12.961l-55.874,32.471
											c-6.156,3.576-16.177,3.576-22.372,0l-56.239-32.471c-6.2-3.58-6.23-9.381-0.074-12.961l55.874-32.471
											c6.156-3.576,16.177-3.576,22.374,0L164.089,342.93z"/>
									</g>
									<g id="Group_90" transform="translate(39.264 254.865)">
										
											<radialGradient id="Ellipse_13_1_" cx="-237.6598" cy="417.4288" r="0.5" gradientTransform="matrix(13.532 0 0 -13.532 3345.6958 5892.1445)" gradientUnits="userSpaceOnUse">
											<stop  offset="0" style="stop-color:#FFFFFF"/>
											<stop  offset="1" style="stop-color:#000000"/>
										</radialGradient>
										<circle id="Ellipse_13" fill="url(#Ellipse_13_1_)" cx="129.681" cy="243.498" r="6.767"/>
										
											<radialGradient id="Ellipse_14_1_" cx="-229.8122" cy="407.5529" r="0.5" gradientTransform="matrix(6.468 0 0 -6.468 1628.421 2827.3052)" gradientUnits="userSpaceOnUse">
											<stop  offset="0" style="stop-color:#FFFFFF"/>
											<stop  offset="1" style="stop-color:#000000"/>
										</radialGradient>
										<circle id="Ellipse_14" fill="url(#Ellipse_14_1_)" cx="141.998" cy="191.254" r="3.233"/>
										
											<radialGradient id="Ellipse_15_1_" cx="-236.7961" cy="416.3429" r="0.4993" gradientTransform="matrix(12.08 0 0 -12.08 2891.5469 5121.2441)" gradientUnits="userSpaceOnUse">
											<stop  offset="0" style="stop-color:#FFFFFF"/>
											<stop  offset="1" style="stop-color:#000000"/>
										</radialGradient>
										<circle id="Ellipse_15" fill="url(#Ellipse_15_1_)" cx="31.047" cy="91.834" r="6.04"/>
										
											<radialGradient id="Ellipse_16_1_" cx="-222.925" cy="398.8868" r="0.5" gradientTransform="matrix(4.436 0 0 -4.436 1036.4163 1822.0421)" gradientUnits="userSpaceOnUse">
											<stop  offset="0" style="stop-color:#FFFFFF"/>
											<stop  offset="1" style="stop-color:#000000"/>
										</radialGradient>
										<circle id="Ellipse_16" fill="url(#Ellipse_16_1_)" cx="47.525" cy="52.582" r="2.218"/>
										
											<radialGradient id="Ellipse_17_1_" cx="-229.6852" cy="407.3927" r="0.5" gradientTransform="matrix(6.414 0 0 -6.414 1587.0005 2651.5063)" gradientUnits="userSpaceOnUse">
											<stop  offset="0" style="stop-color:#FFFFFF"/>
											<stop  offset="1" style="stop-color:#000000"/>
										</radialGradient>
										<circle id="Ellipse_17" fill="url(#Ellipse_17_1_)" cx="113.799" cy="38.484" r="3.207"/>
										
											<radialGradient id="Ellipse_18_1_" cx="-229.7086" cy="407.423" r="0.5" gradientTransform="matrix(6.424 0 0 -6.424 1604.1453 2692.8071)" gradientUnits="userSpaceOnUse">
											<stop  offset="0" style="stop-color:#FFFFFF"/>
											<stop  offset="1" style="stop-color:#000000"/>
										</radialGradient>
										<circle id="Ellipse_18" fill="url(#Ellipse_18_1_)" cx="128.496" cy="75.518" r="3.212"/>
										
											<radialGradient id="Ellipse_19_1_" cx="-229.7702" cy="407.4991" r="0.5007" gradientTransform="matrix(6.45 0 0 -6.45 1532.2391 2858.1626)" gradientUnits="userSpaceOnUse">
											<stop  offset="0" style="stop-color:#FFFFFF"/>
											<stop  offset="1" style="stop-color:#000000"/>
										</radialGradient>
										<circle id="Ellipse_19" fill="url(#Ellipse_19_1_)" cx="50.227" cy="229.788" r="3.225"/>
									</g>
									<g id="Group_117" transform="translate(0 0)">
										<g id="Group_92" transform="translate(54.853 247.034)">
											<g id="Group_91" transform="translate(14.443 14.704)">
												
													<linearGradient id="Path_289_1_" gradientUnits="userSpaceOnUse" x1="-272.9374" y1="418.4386" x2="-272.9374" y2="419.2096" gradientTransform="matrix(50.118 0 0 -158.221 13729.1523 66381.3047)">
													<stop  offset="0" style="stop-color:#FFFB03"/>
													<stop  offset="1" style="stop-color:#FF7006"/>
												</linearGradient>
												<path id="Path_289" fill="url(#Path_289_1_)" d="M75.125,79.65c0-24.5-11.22-44.372-25.059-44.372
													s-25.06,19.868-25.06,44.372c0,24.505,25.06,113.85,25.06,113.85S75.125,104.158,75.125,79.65z"/>
											</g>
											
												<linearGradient id="Path_290_1_" gradientUnits="userSpaceOnUse" x1="-259.1765" y1="430.4942" x2="-259.1765" y2="430.9562" gradientTransform="matrix(77.278 0 0 -35.0821 20092.3086 15166.6885)">
												<stop  offset="0.038" style="stop-color:#FFFDF5"/>
												<stop  offset="1" style="stop-color:#EFEBDA"/>
											</linearGradient>
											<path id="Path_290" fill="url(#Path_290_1_)" d="M25.007,35.277c1.157,9.723,3.83,19.205,7.922,28.1
												c17.336,9.252,44.007,9.301,61.355,0.159c4.137-8.942,6.836-18.48,8-28.265H25.007V35.277z"/>
											
												<radialGradient id="Path_291_1_" cx="-252.9256" cy="398.3204" r="2.615" gradientTransform="matrix(12.9391 0 0 -3.3721 3335.8374 1386.1113)" gradientUnits="userSpaceOnUse">
												<stop  offset="0.014" style="stop-color:#AFA477"/>
												<stop  offset="0.152" style="stop-color:#B2A87D"/>
												<stop  offset="0.334" style="stop-color:#BCB38E"/>
												<stop  offset="0.54" style="stop-color:#CCC5A9"/>
												<stop  offset="0.765" style="stop-color:#E3DFCF"/>
												<stop  offset="0.999" style="stop-color:#FFFFFF"/>
											</radialGradient>
											<path id="Path_291" fill="url(#Path_291_1_)" d="M26.894,45.799c7.958,4.551,21.214,7.53,36.229,7.53
												c15.799,0,29.656-3.3,37.438-8.256c0.336-1.491,0.641-3,0.908-4.511c-22.274,9.808-53.38,9.762-75.667-0.153
												C26.127,42.219,26.479,44.016,26.894,45.799z"/>
										</g>
										<g id="Group_96" transform="translate(139.018 191.787)">
											<g id="Group_95">
												
													<linearGradient id="Path_292_1_" gradientUnits="userSpaceOnUse" x1="-338.0549" y1="483.7754" x2="-338.632" y2="484.6235" gradientTransform="matrix(15.76 0 0 -23.018 5384.3486 11226.2852)">
													<stop  offset="0" style="stop-color:#0089F9"/>
													<stop  offset="1" style="stop-color:#0031BA"/>
												</linearGradient>
												<path id="Path_292" fill="url(#Path_292_1_)" d="M56.998,88.726c-0.77-9.34-4.22-14.232-8.373-16.647l-5.814-3.379
													c4.156,2.416,7.6,7.308,8.372,16.649c-0.005,1.195,0.585,2.316,1.573,2.99l5.814,3.379
													C57.582,91.044,56.992,89.923,56.998,88.726z"/>
												<g id="Group_93" transform="translate(5.813 3.382)">
													
														<linearGradient id="Path_293_1_" gradientUnits="userSpaceOnUse" x1="-346.8171" y1="483.3143" x2="-348.301" y2="484.3552" gradientTransform="matrix(34.6884 0 0 -53.424 12100.4121 25912.6348)">
														<stop  offset="0.021" style="stop-color:#00BFF9"/>
														<stop  offset="1" style="stop-color:#006EE6"/>
													</linearGradient>
													<path id="Path_293" fill="url(#Path_293_1_)" d="M25.007,35.514c35.369-4.153,34.72,47.912,34.684,50.648l-3.124,1.809
														c-2.811,1.621-5.13,0.46-5.38-2.623c-2.131-25.911-24.888-17.582-26.087-17.143L25.007,35.514z"/>
												</g>
												
													<linearGradient id="Path_294_1_" gradientUnits="userSpaceOnUse" x1="-340.738" y1="471.0098" x2="-339.738" y2="471.0098" gradientTransform="matrix(22.293 0 0 -6.6 7621.0967 3147.2449)">
													<stop  offset="0.074" style="stop-color:#BFB89D"/>
													<stop  offset="1" style="stop-color:#EFEBDA"/>
												</linearGradient>
												<path id="Path_294" fill="url(#Path_294_1_)" d="M41.498,38.5l-0.234-0.134c-0.057-0.033-0.116-0.061-0.172-0.091
													c-0.276-0.154-0.559-0.3-0.842-0.445c-0.094-0.048-0.186-0.094-0.278-0.139c-0.362-0.175-0.726-0.344-1.101-0.5
													c-0.012-0.008-0.026-0.014-0.041-0.018c-0.053-0.023-0.105-0.041-0.158-0.063c-0.301-0.121-0.6-0.238-0.9-0.346
													c-0.113-0.046-0.23-0.083-0.347-0.124c-0.289-0.099-0.58-0.192-0.873-0.281c-0.071-0.02-0.142-0.046-0.21-0.066
													l-0.086-0.023c-0.385-0.111-0.779-0.212-1.18-0.306c-0.078-0.02-0.158-0.035-0.239-0.053
													c-0.326-0.071-0.658-0.142-0.994-0.2c-0.062-0.01-0.119-0.025-0.181-0.038c-0.061-0.013-0.142-0.018-0.207-0.03
													c-0.323-0.053-0.649-0.1-0.98-0.142l-0.32-0.046c-0.433-0.051-0.871-0.089-1.318-0.116l-0.063-0.008l-0.19-0.005
													c-0.399-0.025-0.807-0.038-1.219-0.046h-0.399c-0.493,0-0.993,0.01-1.5,0.03h-0.005c-0.248,0.013-0.5,0.033-0.752,0.048
													c-0.153,0.013-0.299,0.02-0.454,0.03c-0.41,0.035-0.822,0.076-1.239,0.124l5.813,3.379
													c0.42-0.051,0.832-0.089,1.24-0.124c0.153-0.01,0.299-0.018,0.449-0.03c0.255-0.015,0.512-0.035,0.762-0.048
													c0.51-0.023,1.008-0.033,1.5-0.03h0.399c0.412,0.008,0.817,0.02,1.217,0.046c0.086,0.005,0.173,0.005,0.259,0.01
													c0.444,0.03,0.885,0.068,1.314,0.119c0.109,0.015,0.215,0.03,0.32,0.043c0.332,0.043,0.66,0.089,0.984,0.142
													c0.129,0.025,0.262,0.045,0.387,0.071c0.334,0.058,0.665,0.125,0.994,0.2c0.078,0.02,0.159,0.035,0.24,0.053
													c0.4,0.094,0.792,0.192,1.18,0.306l0.293,0.089c0.293,0.088,0.584,0.182,0.873,0.281
													c0.115,0.04,0.232,0.078,0.349,0.124c0.306,0.109,0.606,0.228,0.899,0.347c0.066,0.03,0.135,0.053,0.2,0.078
													c0.374,0.159,0.741,0.326,1.101,0.5c0.094,0.046,0.185,0.094,0.277,0.139c0.283,0.144,0.566,0.291,0.842,0.445
													c0.138,0.073,0.271,0.149,0.4,0.228L41.498,38.5z"/>
												<g id="Group_94" transform="translate(0.003 0.238)">
													
														<linearGradient id="Path_295_1_" gradientUnits="userSpaceOnUse" x1="-328.637" y1="485.9182" x2="-327.637" y2="485.9182" gradientTransform="matrix(5.906 0 0 -36.069 1965.9421 17579.9277)">
														<stop  offset="0.038" style="stop-color:#FFFDF5"/>
														<stop  offset="1" style="stop-color:#EFEBDA"/>
													</linearGradient>
													<path id="Path_295" fill="url(#Path_295_1_)" d="M30.913,71.347l-5.815-3.379l-0.091-32.69l5.81,3.379L30.913,71.347z"
														/>
												</g>
											</g>
										</g>
										<g id="Group_99" transform="translate(0 192.025)">
											<g id="Group_98">
												
													<linearGradient id="Path_296_1_" gradientUnits="userSpaceOnUse" x1="-199.6761" y1="483.5618" x2="-199.3011" y2="484.2528" gradientTransform="matrix(15.76 0 0 -23.018 3182.5586 11220.5684)">
													<stop  offset="0" style="stop-color:#0089F9"/>
													<stop  offset="1" style="stop-color:#0031BA"/>
												</linearGradient>
												<path id="Path_296" fill="url(#Path_296_1_)" d="M33.521,88.489c0.769-9.341,4.216-14.233,8.372-16.647l5.815-3.38
													c-4.156,2.416-7.606,7.308-8.372,16.649c0.005,1.195-0.584,2.316-1.573,2.99l-5.815,3.379
													C32.936,90.805,33.525,89.685,33.521,88.489z"/>
												
													<linearGradient id="Path_297_1_" gradientUnits="userSpaceOnUse" x1="-203.4144" y1="486.511" x2="-202.2444" y2="487.416" gradientTransform="matrix(34.691 0 0 -53.424 7076.9653 26083.7441)">
													<stop  offset="0.021" style="stop-color:#00BFF9"/>
													<stop  offset="1" style="stop-color:#006EE6"/>
												</linearGradient>
												<path id="Path_297" fill="url(#Path_297_1_)" d="M59.698,38.658C24.329,34.504,24.979,86.57,25.012,89.306l3.126,1.809
													c2.81,1.621,5.127,0.46,5.38-2.623c2.127-25.911,24.887-17.582,26.086-17.143L59.698,38.658z"/>
												<g id="Group_97" transform="translate(34.597)">
													
														<linearGradient id="Path_298_1_" gradientUnits="userSpaceOnUse" x1="-145.7516" y1="485.9182" x2="-144.7516" y2="485.9182" gradientTransform="matrix(5.906 0 0 -36.069 1349.2157 17579.9277)">
														<stop  offset="0.038" style="stop-color:#FFFDF5"/>
														<stop  offset="1" style="stop-color:#EFEBDA"/>
													</linearGradient>
													<path id="Path_298" fill="url(#Path_298_1_)" d="M25.007,71.347l5.815-3.379l0.091-32.69L25.1,38.657L25.007,71.347z"
														/>
												</g>
											</g>
										</g>
										
											<linearGradient id="Path_299_1_" gradientUnits="userSpaceOnUse" x1="-205.4466" y1="680.9813" x2="-204.3521" y2="680.7225" gradientTransform="matrix(132.0699 0 0 -258.5898 27172.4941 176228.9063)">
											<stop  offset="0.038" style="stop-color:#FFFDF5"/>
											<stop  offset="1" style="stop-color:#EFEBDA"/>
										</linearGradient>
										<path id="Path_299" fill="url(#Path_299_1_)" d="M183.733,227.747c-1.672,19.021-6.076,37.675-14.165,54.753
											c-28.911,15.24-73.37,15.156-102.264-0.266c-8.039-17.068-12.417-35.7-14.058-54.7
											c-3.341-38.293,4.406-78.062,15.6-109.488c3.023-8.545,6.517-16.916,10.467-25.074c15-30.74,31.753-52.47,37.292-57.023
											c1.097-0.898,2.675-0.898,3.771,0c5.542,4.553,22.308,26.283,37.312,57.023c3.979,8.21,7.492,16.639,10.521,25.246
											C179.391,149.675,187.108,189.455,183.733,227.747z"/>
										
											<linearGradient id="Path_300_1_" gradientUnits="userSpaceOnUse" x1="-205.0169" y1="679.7753" x2="-203.9879" y2="679.7753" gradientTransform="matrix(89.216 0 0 -78.4138 18362.5098 53378.2813)">
											<stop  offset="0" style="stop-color:#0031BA"/>
											<stop  offset="1" style="stop-color:#0089F9"/>
										</linearGradient>
										<path id="Path_300" fill="url(#Path_300_1_)" d="M163.137,105.056c-1.772-4.249-3.6-8.289-5.451-12.083
											c-15-30.74-31.769-52.47-37.311-57.022c-1.097-0.898-2.674-0.898-3.771,0c-5.539,4.553-22.293,26.283-37.293,57.022
											c-1.831,3.754-3.628,7.733-5.39,11.939C100.224,116.567,136.878,116.619,163.137,105.056z"/>
										
											<linearGradient id="Path_301_1_" gradientUnits="userSpaceOnUse" x1="-202.7825" y1="679.4169" x2="-203.7001" y2="679.9216" gradientTransform="matrix(45.438 0 0 -76.4045 9340.6406 52008.3047)">
											<stop  offset="0" style="stop-color:#0031BA"/>
											<stop  offset="1" style="stop-color:#0089F9"/>
										</linearGradient>
										<path id="Path_301" fill="url(#Path_301_1_)" d="M119.346,35.417c-9.694,24.77-17.38,50.279-22.98,76.282
											c-7.724-1.377-15.261-3.65-22.458-6.774c0.572-1.379,1.166-2.732,1.738-4.062c0.761-1.71,1.52-3.4,2.279-5.039
											c0.475-0.951,0.926-1.9,1.379-2.851c15.02-30.727,31.749-52.472,37.311-57.01c0.646-0.522,1.478-0.754,2.3-0.64
											C119.061,35.34,119.206,35.371,119.346,35.417z"/>
										<path id="Path_302" opacity="0.38" fill="#C4BC9A" enable-background="new    " d="M119.341,35.415
											c-0.943-0.289-1.969-0.091-2.737,0.529c-5.539,4.553-22.291,26.283-37.292,57.023
											c-3.949,8.158-7.444,16.529-10.467,25.074c-11.19,31.425-18.938,71.195-15.6,109.488c1.639,19,6.02,37.63,14.058,54.7
											c9.001,4.643,18.664,7.87,28.648,9.568C66.269,180.338,108.07,63.658,119.341,35.415z"/>
										<path id="Path_303" opacity="0.53" fill="#0031BA" enable-background="new    " d="M85.531,212.905
											c-11.282-2.027-22.267-5.454-32.7-10.2c-0.071-1.022-0.119-2.046-0.144-3.088c-0.02-0.015-0.024-0.043-0.01-0.063
											c0.003-0.004,0.006-0.007,0.01-0.01c0.048-1.566,0.119-3.136,0.238-4.7c10.325,5.053,21.284,8.689,32.581,10.811v0.023
											C85.485,208.079,85.508,210.479,85.531,212.905z"/>
										<path id="Path_304" opacity="0.53" fill="#0031BA" enable-background="new    " d="M86.221,230.419
											c-11.521-2.011-22.74-5.477-33.388-10.315c-0.167-2.588-0.263-5.2-0.334-7.818v-0.26
											c10.537,5.227,21.75,8.963,33.317,11.1C85.935,225.547,86.056,227.97,86.221,230.419z"/>
										<g id="Group_102" transform="translate(11.435 207.439)">
											
												<linearGradient id="Path_305_1_" gradientUnits="userSpaceOnUse" x1="-207.1067" y1="467.4056" x2="-208.8177" y2="468.5866" gradientTransform="matrix(46.1447 0 0 -109.4 9965.0459 51812.0156)">
												<stop  offset="0" style="stop-color:#0031BA"/>
												<stop  offset="1" style="stop-color:#0089F9"/>
											</linearGradient>
											<path id="Path_305" fill="url(#Path_305_1_)" d="M29.697,144.674c-0.058-3.255-1.2-65.101,41.459-109.4L63.74,35.55
												c0,0-38.928,35.581-38.728,106.398L29.697,144.674z"/>
											<g id="Group_101" transform="translate(4.677)">
												<g id="Group_100">
													
														<linearGradient id="Path_306_1_" gradientUnits="userSpaceOnUse" x1="-209.313" y1="472.7796" x2="-208.313" y2="472.7796" gradientTransform="matrix(44.9823 0 0 -109.4 9922.5869 51812.0156)">
														<stop  offset="0" style="stop-color:#006EE6"/>
														<stop  offset="0.979" style="stop-color:#00BFF9"/>
													</linearGradient>
													<path id="Path_306" fill="url(#Path_306_1_)" d="M66.477,35.277c-42.658,44.3-41.518,106.141-41.457,109.4l3.776-2.178
														c3.653-2.4,6.029-6.318,6.47-10.667c2.385-34.192,33.277-58.336,34.723-59.476L66.477,35.277z"/>
												</g>
											</g>
										</g>
										<g id="Group_105" transform="translate(121.168 207.439)">
											
												<linearGradient id="Path_307_1_" gradientUnits="userSpaceOnUse" x1="-327.888" y1="475.0609" x2="-329.5989" y2="476.2418" gradientTransform="matrix(46.1477 0 0 -109.4 15033.1328 51812.0156)">
												<stop  offset="0" style="stop-color:#0031BA"/>
												<stop  offset="1" style="stop-color:#0089F9"/>
											</linearGradient>
											<path id="Path_307" fill="url(#Path_307_1_)" d="M69.977,144.674c0.058-3.255,1.199-65.101-41.457-109.4l7.414,0.276
												c0,0,38.925,35.579,38.732,106.4L69.977,144.674z"/>
											<g id="Group_104">
												<g id="Group_103">
													
														<linearGradient id="Path_308_1_" gradientUnits="userSpaceOnUse" x1="-330.9388" y1="472.7806" x2="-329.9393" y2="472.7806" gradientTransform="matrix(44.9859 0 0 -109.4 14649.4111 51812.0156)">
														<stop  offset="0" style="stop-color:#006EE6"/>
														<stop  offset="0.979" style="stop-color:#00BFF9"/>
													</linearGradient>
													<path id="Path_308" fill="url(#Path_308_1_)" d="M28.52,35.277c42.657,44.3,41.518,106.141,41.459,109.4l-3.779-2.178
														c-3.652-2.4-6.029-6.318-6.471-10.667C57.344,97.64,26.453,73.496,25.007,72.357L28.52,35.277z"/>
												</g>
											</g>
										</g>
										<g id="Group_109" transform="translate(43.695 97.747)">
											<g id="Group_106" transform="translate(0 2.901)">
												
													<linearGradient id="Path_309_1_" gradientUnits="userSpaceOnUse" x1="-247.6201" y1="578.5784" x2="-246.6201" y2="578.5784" gradientTransform="matrix(45.0862 0 0 -57.9858 11189.2754 33613.5898)">
													<stop  offset="0" style="stop-color:#006EE6"/>
													<stop  offset="0.979" style="stop-color:#00BFF9"/>
												</linearGradient>
												<path id="Path_309" fill="url(#Path_309_1_)" d="M47.622,38.368c12.45,7.189,22.512,24.609,22.471,38.922
													S59.922,97.356,47.478,90.17c-12.444-7.186-22.509-24.609-22.471-38.912C25.045,36.955,35.178,31.184,47.622,38.368z"/>
											</g>
											<g id="Group_107" transform="translate(5.157 9.531)">
												
													<linearGradient id="Path_310_1_" gradientUnits="userSpaceOnUse" x1="-252.1033" y1="570.9279" x2="-251.2743" y2="571.6319" gradientTransform="matrix(34.7791 0 0 -44.7239 8794.1514 25609.4336)">
													<stop  offset="0" style="stop-color:#0031BA"/>
													<stop  offset="1" style="stop-color:#0089F9"/>
												</linearGradient>
												<path id="Path_310" fill="url(#Path_310_1_)" d="M42.452,37.662c9.6,5.542,17.362,18.981,17.334,30.019
													c-0.028,11.038-7.847,15.477-17.445,9.935c-9.599-5.542-17.364-18.981-17.334-30.014
													C25.037,36.57,32.851,32.12,42.452,37.662z"/>
											</g>
											<g id="Group_108" transform="translate(6.167 12.253)">
												
													<linearGradient id="Path_311_1_" gradientUnits="userSpaceOnUse" x1="-252.2725" y1="566.3827" x2="-251.1865" y2="567.4537" gradientTransform="matrix(25.337 0 0 -28.071 6412.6143 15964.9365)">
													<stop  offset="0" style="stop-color:#0031BA"/>
													<stop  offset="1" style="stop-color:#0089F9"/>
												</linearGradient>
												<path id="Path_311" fill="url(#Path_311_1_)" d="M50.344,42.909l-20.455,20.44c-2.172-3.431-3.818-7.167-4.882-11.086
													l16.984-16.985C45.202,37.31,48.03,39.893,50.344,42.909z"/>
												
													<linearGradient id="Path_312_1_" gradientUnits="userSpaceOnUse" x1="-252.1382" y1="566.3593" x2="-251.0512" y2="567.4293" gradientTransform="matrix(25.236 0 0 -27.972 6394.3774 15919.7939)">
													<stop  offset="0" style="stop-color:#0031BA"/>
													<stop  offset="1" style="stop-color:#0089F9"/>
												</linearGradient>
												<path id="Path_312" fill="url(#Path_312_1_)" d="M57.849,57.903L41.036,74.716c-3.24-1.992-6.093-4.553-8.423-7.56
													l20.412-20.412C55.19,50.198,56.817,53.96,57.849,57.903z"/>
											</g>
											
												<linearGradient id="Path_313_1_" gradientUnits="userSpaceOnUse" x1="-246.3921" y1="580.8681" x2="-247.2441" y2="581.9921" gradientTransform="matrix(43.481 0 0 -59.3491 10794.9131 34578.082)">
												<stop  offset="0" style="stop-color:#0031BA"/>
												<stop  offset="1" style="stop-color:#0089F9"/>
											</linearGradient>
											<path id="Path_313" fill="url(#Path_313_1_)" d="M75.051,76.284c-0.01-0.362-0.028-0.726-0.051-1.093
												c-0.013-0.162-0.028-0.331-0.04-0.5c-0.008-0.068-0.014-0.144-0.018-0.212c-0.014-0.129-0.021-0.258-0.033-0.385
												c-0.035-0.367-0.076-0.734-0.121-1.1c-0.045-0.366-0.1-0.756-0.162-1.133c0-0.011-0.002-0.022-0.006-0.033
												c0-0.015-0.004-0.028-0.008-0.04c-0.056-0.359-0.115-0.711-0.182-1.07c-0.072-0.39-0.156-0.782-0.24-1.176l-0.1-0.415
												c-0.018-0.083-0.038-0.162-0.057-0.248c-0.041-0.172-0.075-0.347-0.12-0.519c-0.101-0.395-0.2-0.794-0.314-1.2
												c-0.081-0.291-0.167-0.582-0.256-0.875c-0.019-0.053-0.03-0.1-0.048-0.159c-0.018-0.059-0.03-0.1-0.048-0.159
												c-0.119-0.387-0.243-0.776-0.372-1.166c-0.13-0.382-0.263-0.766-0.4-1.148c-0.024-0.071-0.053-0.142-0.077-0.21
												c-0.025-0.068-0.047-0.119-0.066-0.175c-0.09-0.24-0.174-0.478-0.268-0.718c-0.143-0.367-0.289-0.733-0.44-1.1
												c-0.111-0.263-0.226-0.526-0.339-0.789c-0.021-0.046-0.039-0.089-0.057-0.134s-0.046-0.1-0.066-0.154
												c-0.158-0.364-0.325-0.726-0.492-1.088c-0.188-0.4-0.379-0.794-0.577-1.191c-0.033-0.058-0.063-0.119-0.094-0.18
												l-0.121-0.235c-0.159-0.314-0.319-0.627-0.483-0.938c-0.21-0.389-0.435-0.777-0.652-1.161
												c-0.111-0.195-0.215-0.389-0.33-0.584c-0.045-0.076-0.086-0.157-0.131-0.233c-0.199-0.334-0.414-0.658-0.619-0.989
												c-0.301-0.486-0.594-0.974-0.908-1.447c-0.051-0.076-0.094-0.157-0.145-0.23c-0.463-0.69-0.938-1.367-1.424-2.031
												c0-0.001,0-0.003,0-0.005l0,0c-0.328-0.446-0.662-0.884-1-1.315c-0.275-0.352-0.557-0.7-0.84-1.04
												c-0.007-0.006-0.013-0.013-0.018-0.02l-0.01-0.013c-0.287-0.346-0.58-0.685-0.873-1.019
												c-0.295-0.334-0.58-0.655-0.879-0.971c-0.048-0.053-0.1-0.1-0.146-0.154l-0.159-0.164c-0.2-0.218-0.41-0.438-0.617-0.65
												c-0.313-0.316-0.63-0.632-0.95-0.939c-0.101-0.094-0.201-0.182-0.301-0.276c-0.072-0.071-0.148-0.139-0.223-0.207
												c-0.159-0.149-0.311-0.3-0.471-0.438c-0.333-0.299-0.666-0.59-1-0.875c-0.146-0.126-0.299-0.245-0.447-0.364
												c-0.073-0.063-0.149-0.124-0.225-0.185c-0.111-0.091-0.221-0.182-0.332-0.268c-0.326-0.261-0.658-0.511-0.992-0.756
												c-0.239-0.177-0.48-0.347-0.723-0.513l-0.134-0.1l-0.121-0.086c-0.319-0.218-0.637-0.43-0.959-0.632
												c-0.321-0.202-0.635-0.4-0.954-0.584c-0.072-0.043-0.148-0.086-0.223-0.132c-0.24-0.139-0.479-0.271-0.717-0.4
												c-0.311-0.167-0.616-0.326-0.922-0.478c-0.2-0.1-0.4-0.187-0.594-0.276c-0.047-0.026-0.096-0.049-0.145-0.068
												c-0.057-0.028-0.116-0.056-0.174-0.083c-0.301-0.134-0.601-0.263-0.9-0.379s-0.609-0.238-0.91-0.344
												c-0.051-0.018-0.1-0.033-0.154-0.053l-0.137-0.045c-0.2-0.068-0.41-0.139-0.612-0.2c-0.314-0.1-0.625-0.182-0.931-0.258
												c-0.149-0.04-0.293-0.066-0.443-0.1l-0.195-0.046c-0.094-0.02-0.192-0.045-0.286-0.063
												c-0.334-0.063-0.663-0.119-0.989-0.162c-0.2-0.025-0.395-0.04-0.592-0.058l-0.21-0.023
												c-0.066-0.005-0.134-0.018-0.2-0.023c-0.359-0.025-0.711-0.035-1.06-0.035c-0.154,0-0.3,0.018-0.455,0.025
												c-0.116,0-0.232,0.005-0.349,0.015c-0.121,0.008-0.248,0.005-0.367,0.018c-0.436,0.041-0.87,0.104-1.3,0.19
												c-0.008,0-0.015,0.005-0.023,0.005c-0.094,0.021-0.18,0.053-0.271,0.073c-0.434,0.093-0.862,0.211-1.282,0.354
												c-0.048,0.018-0.094,0.04-0.142,0.056c-0.068,0.025-0.137,0.056-0.2,0.083c-0.51,0.197-1.004,0.431-1.48,0.7l0,0
												l-4.97,2.891c0.475-0.271,0.969-0.505,1.48-0.7c0.068-0.03,0.134-0.058,0.2-0.084c0.465-0.167,0.941-0.305,1.424-0.41
												c0.091-0.023,0.177-0.056,0.268-0.073c0.557-0.111,1.121-0.182,1.687-0.212c0.116-0.01,0.233-0.015,0.352-0.018
												c0.572-0.024,1.145-0.013,1.715,0.033c0.068,0.008,0.139,0.015,0.207,0.025c0.628,0.059,1.252,0.155,1.869,0.286
												c0.063,0.013,0.129,0.03,0.192,0.043c0.672,0.151,1.335,0.336,1.988,0.557l0.134,0.046
												c0.703,0.243,1.418,0.529,2.145,0.86c0.048,0.02,0.1,0.045,0.144,0.066c0.736,0.341,1.48,0.723,2.233,1.158
												c0.752,0.435,1.515,0.921,2.259,1.432l0.134,0.1c0.691,0.481,1.373,1,2.046,1.538c0.073,0.061,0.149,0.124,0.226,0.185
												c0.649,0.531,1.289,1.093,1.916,1.674c0.073,0.068,0.149,0.137,0.224,0.207c0.638,0.6,1.26,1.222,1.868,1.864
												l0.158,0.164c0.652,0.693,1.289,1.416,1.906,2.158c0.004,0.007,0.01,0.014,0.016,0.02
												c0.635,0.767,1.25,1.552,1.844,2.357l0,0c0.544,0.736,1.063,1.495,1.57,2.261c0.314,0.475,0.607,0.964,0.908,1.447
												c0.25,0.407,0.508,0.809,0.75,1.219c0.113,0.195,0.219,0.392,0.328,0.587c0.393,0.69,0.776,1.391,1.137,2.1
												c0.043,0.078,0.08,0.157,0.121,0.233c0.435,0.867,0.844,1.737,1.229,2.613c0.02,0.046,0.04,0.088,0.059,0.134
												c0.371,0.86,0.723,1.73,1.047,2.6c0.02,0.058,0.045,0.119,0.063,0.174c0.329,0.893,0.63,1.786,0.9,2.686
												c0.015,0.053,0.029,0.1,0.045,0.159c0.262,0.863,0.488,1.728,0.691,2.588c0.018,0.081,0.038,0.162,0.057,0.245
												c0.199,0.89,0.379,1.778,0.521,2.661c0,0.013,0.005,0.028,0.005,0.04c0.143,0.893,0.248,1.776,0.321,2.656
												c0.007,0.068,0.013,0.142,0.019,0.212c0.067,0.88,0.105,1.748,0.1,2.608s-0.047,1.677-0.116,2.471
												c-0.008,0.073-0.019,0.144-0.022,0.212c-0.074,0.731-0.178,1.429-0.31,2.1l-0.054,0.266
												c-0.137,0.653-0.299,1.275-0.482,1.872c-0.035,0.114-0.072,0.223-0.111,0.331c-0.18,0.548-0.389,1.085-0.627,1.611
												c-0.027,0.053-0.048,0.116-0.072,0.172c-0.265,0.565-0.565,1.112-0.9,1.639c-0.046,0.068-0.1,0.129-0.143,0.195
												c-0.269,0.4-0.561,0.785-0.873,1.153c-0.113,0.132-0.229,0.256-0.346,0.379c-0.268,0.286-0.549,0.558-0.845,0.815
												c-0.124,0.109-0.243,0.218-0.366,0.316c-0.412,0.334-0.849,0.638-1.306,0.908l0,0l4.974-2.891
												c0.455-0.269,0.889-0.572,1.299-0.906c0.127-0.1,0.246-0.21,0.367-0.316c0.297-0.257,0.578-0.529,0.846-0.817
												c0.119-0.124,0.234-0.248,0.346-0.379c0.313-0.367,0.604-0.751,0.875-1.151c0.046-0.068,0.1-0.129,0.139-0.2
												c0.012-0.015,0.023-0.03,0.033-0.046c0.314-0.495,0.599-1.009,0.851-1.54c0.01-0.019,0.018-0.038,0.024-0.053
												c0.024-0.053,0.048-0.116,0.071-0.172c0.156-0.341,0.308-0.685,0.445-1.052c0.065-0.18,0.123-0.369,0.185-0.559
												c0.038-0.109,0.073-0.217,0.108-0.331c0.033-0.1,0.068-0.192,0.101-0.3c0.11-0.372,0.21-0.756,0.3-1.151
												c0.03-0.139,0.053-0.281,0.084-0.425c0.02-0.089,0.037-0.178,0.053-0.266c0.028-0.139,0.057-0.271,0.082-0.41
												c0.061-0.352,0.115-0.711,0.158-1.078c0.028-0.2,0.045-0.41,0.063-0.615l0.023-0.212c0.008-0.086,0.02-0.17,0.028-0.255
												c0.028-0.352,0.05-0.7,0.063-1.065c0.013-0.365,0.024-0.718,0.027-1.09v-0.063
												C75.067,76.962,75.061,76.625,75.051,76.284z"/>
											
												<linearGradient id="Path_314_1_" gradientUnits="userSpaceOnUse" x1="-245.7705" y1="579.0253" x2="-244.0371" y2="580.3831" gradientTransform="matrix(25.337 0 0 -28.071 6262.5283 16321.1426)">
												<stop  offset="0" style="stop-color:#FFFFFF;stop-opacity:0"/>
												<stop  offset="1" style="stop-color:#FFFFFF"/>
											</linearGradient>
											<path id="Path_314" fill="url(#Path_314_1_)" d="M56.511,55.162l-20.455,20.44c-2.172-3.431-3.818-7.167-4.882-11.086
												L48.158,47.53C51.369,49.563,54.197,52.146,56.511,55.162z"/>
											
												<linearGradient id="Path_315_1_" gradientUnits="userSpaceOnUse" x1="-245.6436" y1="578.9882" x2="-243.9016" y2="580.3512" gradientTransform="matrix(25.236 0 0 -27.972 6244.9146 16274.7871)">
												<stop  offset="0" style="stop-color:#FFFFFF;stop-opacity:0"/>
												<stop  offset="1" style="stop-color:#FFFFFF"/>
											</linearGradient>
											<path id="Path_315" fill="url(#Path_315_1_)" d="M64.016,70.155L47.203,86.968c-3.24-1.992-6.093-4.553-8.423-7.56
												l20.412-20.412C61.357,62.45,62.984,66.212,64.016,70.155z"/>
										</g>
										<g id="Group_110" transform="translate(48.901)">
											
												<linearGradient id="Path_316_1_" gradientUnits="userSpaceOnUse" x1="-252.8071" y1="678.9598" x2="-253.8421" y2="680.0479" gradientTransform="matrix(89.216 0 0 -78.4138 22676.3613 53378.2813)">
												<stop  offset="0" style="stop-color:#0031BA"/>
												<stop  offset="1" style="stop-color:#0089F9"/>
											</linearGradient>
											<path id="Path_316" fill="url(#Path_316_1_)" d="M114.236,105.056c-1.772-4.249-3.6-8.289-5.451-12.083
												c-15-30.74-31.769-52.47-37.311-57.022c-1.097-0.898-2.674-0.898-3.771,0c-5.539,4.553-22.293,26.283-37.293,57.022
												c-1.831,3.754-3.628,7.733-5.39,11.939C51.323,116.567,87.977,116.619,114.236,105.056z"/>
											<path id="Path_317" opacity="0.53" fill="#0031BA" enable-background="new    " d="M70.445,35.417
												c-9.694,24.77-17.38,50.279-22.98,76.282c-7.724-1.377-15.261-3.65-22.458-6.774c0.572-1.379,1.166-2.732,1.738-4.062
												c0.761-1.71,1.52-3.4,2.279-5.039c0.475-0.951,0.926-1.9,1.379-2.851c15.02-30.727,31.749-52.472,37.311-57.01
												c0.646-0.522,1.478-0.754,2.3-0.64C70.16,35.34,70.305,35.371,70.445,35.417z"/>
										</g>
										<g id="Group_113" transform="translate(27.505 158.108)">
											<g id="Group_111" transform="translate(0 17.397)">
												
													<linearGradient id="Path_318_1_" gradientUnits="userSpaceOnUse" x1="-232.8505" y1="500.3737" x2="-231.8505" y2="500.3737" gradientTransform="matrix(131.979 0 0 -22.4213 30756.4121 11265.5234)">
													<stop  offset="0" style="stop-color:#006EE6"/>
													<stop  offset="0.979" style="stop-color:#00BFF9"/>
												</linearGradient>
												<path id="Path_318" fill="url(#Path_318_1_)" d="M156.741,43.434c0.142-2.714,0.215-5.436,0.25-8.157
													c-18.126,9.875-41.819,15.308-67.101,15.308c-24.199,0-47-4.978-64.878-14.066c0.051,2.7,0.162,5.393,0.316,8.081
													C63.813,62.443,119.118,62.058,156.741,43.434z"/>
											</g>
											<g id="Group_112">
												
													<linearGradient id="Path_319_1_" gradientUnits="userSpaceOnUse" x1="-232.8505" y1="517.7717" x2="-231.8505" y2="517.7717" gradientTransform="matrix(131.979 0 0 -22.4221 30756.4121 11656.0088)">
													<stop  offset="0" style="stop-color:#006EE6"/>
													<stop  offset="0.979" style="stop-color:#00BFF9"/>
												</linearGradient>
												<path id="Path_319" fill="url(#Path_319_1_)" d="M156.741,43.434c0.142-2.714,0.215-5.433,0.25-8.157
													c-18.126,9.875-41.819,15.305-67.101,15.305c-24.199,0-47-4.975-64.878-14.061c0.051,2.7,0.162,5.39,0.316,8.079
													C63.813,62.446,119.118,62.058,156.741,43.434z"/>
											</g>
										</g>
										<g id="Group_116" transform="translate(27.489 159.353)" opacity="0.53">
											<g id="Group_114" transform="translate(0.003 17.395)" opacity="0.4">
												<path id="Path_320" fill="#0031BA" d="M58.729,53.671c-11.521-2.011-22.74-5.477-33.388-10.315
													c-0.167-2.588-0.263-5.2-0.334-7.818v-0.26c10.537,5.227,21.75,8.963,33.317,11.1
													C58.443,48.799,58.564,51.223,58.729,53.671z"/>
											</g>
											<g id="Group_115">
												<path id="Path_321" opacity="0.4" fill="#0031BA" enable-background="new    " d="M58.041,53.552
													c-11.282-2.027-22.267-5.454-32.7-10.2c-0.071-1.022-0.119-2.046-0.144-3.088c-0.02-0.015-0.025-0.043-0.01-0.063
													c0.003-0.004,0.006-0.007,0.01-0.01c-0.094-1.639-0.144-3.278-0.19-4.917c0.144,0.071,0.286,0.144,0.427,0.215
													c10.325,5.055,21.285,8.693,32.582,10.817v0.023C57.995,48.726,58.018,51.126,58.041,53.552z"/>
											</g>
										</g>
									</g>
								</g>
							</g>
						</g>
					</g>
				</g>
				<g id="Group_149" transform="translate(310.89 373.808)">
					<g id="Group_71" transform="translate(0 0)">
						<g id="Group_66" transform="translate(9.474 19.299)">
							
								<linearGradient id="Path_250_1_" gradientUnits="userSpaceOnUse" x1="-387.7024" y1="357.3915" x2="-388.4324" y2="357.9545" gradientTransform="matrix(73.6904 0 0 -94.7856 28861.7031 34186.2305)">
								<stop  offset="0.038" style="stop-color:#FFFDF5"/>
								<stop  offset="1" style="stop-color:#EFEBDA"/>
							</linearGradient>
							<path id="Path_250" fill="url(#Path_250_1_)" d="M98.698,103.937c-0.066,23.381-16.612,32.824-36.971,21.07
								S24.941,84.773,25.008,61.392c0.066-23.381,16.612-32.809,36.959-21.061C82.313,52.08,98.764,80.559,98.698,103.937z
								 M61.754,116.06c16.061,9.273,29.119,1.844,29.17-16.611S78.003,58.535,61.942,49.264
								c-16.061-9.272-29.107-1.824-29.16,16.617C32.73,84.322,45.705,106.795,61.754,116.06"/>
						</g>
						<g id="Group_67" transform="translate(26.301 40.943)">
							
								<linearGradient id="Path_251_1_" gradientUnits="userSpaceOnUse" x1="-400.8053" y1="332.6382" x2="-402.1473" y2="333.6752" gradientTransform="matrix(40.0392 0 0 -51.5019 16322.5791 17420.6523)">
								<stop  offset="0.038" style="stop-color:#FFFDF5"/>
								<stop  offset="1" style="stop-color:#EFEBDA"/>
							</linearGradient>
							<path id="Path_251" fill="url(#Path_251_1_)" d="M65.045,72.581c-0.035,12.711-9.027,17.834-20.09,11.449
								c-11.062-6.387-19.983-21.854-19.949-34.566c0.033-12.71,9.026-17.822,20.078-11.441
								C56.137,44.401,65.082,59.881,65.045,72.581z M44.981,74.993c6.719,3.879,12.179,0.768,12.2-6.953
								c0.021-7.721-5.4-17.1-12.122-20.982c-6.723-3.885-12.168-0.764-12.191,6.945c-0.022,7.709,5.4,17.117,12.111,20.99"/>
						</g>
						<g id="Group_68" transform="translate(17.249 29.3)">
							
								<linearGradient id="Path_252_1_" gradientUnits="userSpaceOnUse" x1="-394.7533" y1="346.1151" x2="-395.7493" y2="347.0672" gradientTransform="matrix(58.1423 0 0 -74.7774 23208.9551 26203.6387)">
								<stop  offset="0" style="stop-color:#0031BA"/>
								<stop  offset="1" style="stop-color:#0089F9"/>
							</linearGradient>
							<path id="Path_252" fill="url(#Path_252_1_)" d="M53.978,106.059c16.061,9.273,29.119,1.844,29.17-16.611
								S70.227,48.534,54.166,39.263c-16.061-9.272-29.107-1.824-29.16,16.617C24.954,74.321,37.929,96.79,53.978,106.059z
								 M54.007,95.671C42.956,89.29,34.024,73.817,34.058,61.104c0.033-12.71,9.026-17.822,20.078-11.441
								c11.053,6.379,20,21.859,19.959,34.559C74.055,96.921,65.069,102.058,54.007,95.671"/>
						</g>
						<g id="Group_69" transform="translate(0 7.113)">
							
								<linearGradient id="Path_253_1_" gradientUnits="userSpaceOnUse" x1="-379.4291" y1="370.1527" x2="-380.0541" y2="370.7507" gradientTransform="matrix(92.6405 0 0 -119.1576 35424.6758 44450.8984)">
								<stop  offset="0" style="stop-color:#0031BA"/>
								<stop  offset="1" style="stop-color:#0089F9"/>
							</linearGradient>
							<path id="Path_253" fill="url(#Path_253_1_)" d="M25.006,68.108c-0.083,29.4,20.586,65.201,46.163,79.969
								c25.577,14.77,46.393,2.922,46.478-26.484S97.062,56.403,71.473,41.629C45.883,26.856,25.091,38.718,25.006,68.108z
								 M71.202,137.198C50.856,125.45,34.416,96.963,34.483,73.582c0.066-23.381,16.613-32.809,36.959-21.063
								c20.346,11.748,36.8,40.229,36.73,63.609C108.104,139.51,91.56,148.948,71.202,137.198"/>
						</g>
						<g id="Group_70" transform="translate(34.164 51.056)">
							
								<linearGradient id="Path_254_1_" gradientUnits="userSpaceOnUse" x1="-404.4818" y1="317.4392" x2="-406.8648" y2="319.7162" gradientTransform="matrix(24.3132 0 0 -31.2688 10074.4346 10226.3477)">
								<stop  offset="0" style="stop-color:#0031BA"/>
								<stop  offset="1" style="stop-color:#0089F9"/>
							</linearGradient>
							<path id="Path_254" fill="url(#Path_254_1_)" d="M25.007,43.889c0.023-7.709,5.482-10.818,12.191-6.945
								S49.341,50.218,49.32,57.927c-0.022,7.709-5.482,10.832-12.2,6.953S24.982,51.612,25.007,43.889z"/>
						</g>
						
							<linearGradient id="Path_255_1_" gradientUnits="userSpaceOnUse" x1="-379.8544" y1="377.8614" x2="-380.2054" y2="378.1904" gradientTransform="matrix(91.3941 0 0 -123.1601 34960.5977 46822.9531)">
							<stop  offset="0" style="stop-color:#0031BA"/>
							<stop  offset="1" style="stop-color:#0089F9"/>
						</linearGradient>
						<path id="Path_255" fill="url(#Path_255_1_)" d="M67.7,46.756c-0.74-0.359-1.477-0.695-2.207-1.008
							c-0.26-0.111-0.52-0.229-0.778-0.335c-0.688-0.282-1.373-0.538-2.053-0.78c-0.164-0.06-0.333-0.129-0.5-0.187
							c-0.842-0.288-1.675-0.545-2.5-0.771c-0.487-0.135-0.972-0.248-1.453-0.361c-0.22-0.051-0.443-0.113-0.661-0.16
							c-0.706-0.152-1.405-0.284-2.1-0.389c-1.051-0.161-2.079-0.254-3.094-0.312c-0.205-0.012-0.409-0.026-0.613-0.032
							c-0.911-0.033-1.806-0.031-2.682,0.021c-0.155,0.009-0.301,0.028-0.459,0.041c-0.71,0.055-1.406,0.136-2.09,0.243
							c-0.216,0.033-0.43,0.066-0.643,0.107c-0.779,0.139-1.552,0.316-2.313,0.533c-0.034,0.012-0.068,0.023-0.1,0.035
							c-0.714,0.21-1.4,0.46-2.083,0.734c-0.2,0.08-0.4,0.166-0.594,0.252c-0.582,0.254-1.15,0.531-1.706,0.834
							c-0.185,0.101-0.374,0.188-0.554,0.293l12.259-7.125l0.255-0.145c0.095-0.054,0.2-0.094,0.3-0.146
							c0.557-0.301,1.126-0.58,1.708-0.834c0.109-0.047,0.21-0.109,0.318-0.154c0.089-0.036,0.185-0.061,0.274-0.1
							c0.68-0.275,1.37-0.525,2.082-0.735c0.032-0.009,0.06-0.022,0.091-0.032c0.007,0.001,0.013,0.001,0.019,0
							c0.753-0.217,1.528-0.388,2.313-0.533c0.095-0.017,0.179-0.047,0.271-0.063c0.121-0.021,0.25-0.023,0.371-0.044
							c0.685-0.108,1.382-0.19,2.092-0.244c0.113-0.009,0.22-0.032,0.336-0.039c0.038,0,0.081,0,0.121,0
							c0.875-0.051,1.771-0.054,2.681-0.022c0.089,0,0.172-0.006,0.263,0c0.115,0,0.237,0.029,0.353,0.035
							c1.015,0.057,2.043,0.148,3.094,0.312h0.007c0.688,0.106,1.383,0.237,2.086,0.388c0.225,0.049,0.455,0.112,0.68,0.164
							c0.434,0.1,0.867,0.2,1.308,0.316c0.042,0.013,0.088,0.029,0.128,0.039c0.825,0.227,1.659,0.483,2.5,0.771
							c0.166,0.057,0.335,0.125,0.5,0.186c0.68,0.244,1.362,0.5,2.053,0.781c0.091,0.038,0.18,0.065,0.271,0.1
							c0.167,0.07,0.341,0.16,0.508,0.232c0.729,0.314,1.462,0.649,2.2,1.006c0.281,0.135,0.558,0.27,0.839,0.409
							c0.973,0.492,1.948,1.009,2.935,1.577c1.229,0.711,2.443,1.482,3.65,2.289c0.205,0.137,0.412,0.27,0.617,0.41
							c1.149,0.785,2.285,1.609,3.408,2.477c0.22,0.168,0.436,0.34,0.655,0.51c1.142,0.9,2.271,1.824,3.381,2.801
							c0.1,0.084,0.189,0.173,0.285,0.258c1.072,0.951,2.129,1.936,3.17,2.954c0.1,0.1,0.214,0.192,0.316,0.3
							c0.065,0.063,0.127,0.133,0.192,0.2c0.8,0.791,1.587,1.6,2.362,2.423c0.051,0.057,0.1,0.115,0.154,0.17
							c0.723,0.775,1.438,1.566,2.145,2.371c0.068,0.078,0.14,0.154,0.21,0.232c0.088,0.1,0.167,0.209,0.255,0.311
							c1.163,1.348,2.299,2.73,3.406,4.148c0.031,0.041,0.065,0.078,0.1,0.121c0.086,0.11,0.163,0.227,0.249,0.338
							c0.879,1.145,1.737,2.309,2.575,3.492c0.084,0.119,0.173,0.229,0.258,0.348c0.038,0.055,0.074,0.113,0.112,0.168
							c0.8,1.148,1.581,2.314,2.343,3.5c0.074,0.115,0.154,0.223,0.226,0.338c0.109,0.17,0.208,0.346,0.315,0.518
							c0.612,0.971,1.213,1.951,1.8,2.941c0.092,0.154,0.19,0.3,0.281,0.459c0.033,0.059,0.064,0.117,0.1,0.177
							c0.661,1.134,1.3,2.28,1.917,3.44c0.051,0.101,0.107,0.189,0.157,0.285c0.1,0.191,0.193,0.388,0.294,0.578
							c0.482,0.922,0.953,1.85,1.411,2.783c0.095,0.192,0.2,0.383,0.291,0.576c0.056,0.115,0.1,0.232,0.158,0.348
							c0.563,1.18,1.109,2.363,1.629,3.557c0.017,0.037,0.035,0.074,0.051,0.113c0.056,0.127,0.1,0.258,0.158,0.387
							c0.461,1.078,0.903,2.158,1.325,3.242c0.068,0.176,0.147,0.35,0.216,0.525c0.056,0.146,0.1,0.293,0.157,0.439
							c0.485,1.281,0.953,2.568,1.383,3.855c0.008,0.025,0.02,0.051,0.026,0.078c0.027,0.076,0.048,0.156,0.072,0.234
							c0.439,1.326,0.84,2.654,1.217,3.984c0.048,0.166,0.106,0.332,0.152,0.5c0.026,0.092,0.042,0.182,0.066,0.271
							c0.424,1.545,0.803,3.09,1.136,4.633c0.03,0.137,0.072,0.273,0.1,0.408c0.042,0.201,0.075,0.4,0.116,0.602
							c0.124,0.605,0.238,1.211,0.349,1.814c0.077,0.42,0.154,0.842,0.223,1.262c0.1,0.623,0.194,1.244,0.284,1.865
							c0.041,0.293,0.1,0.588,0.133,0.881c0.011,0.076,0.012,0.15,0.022,0.229c0.169,1.332,0.301,2.656,0.392,3.973
							c0.02,0.281,0.032,0.561,0.05,0.842c0.08,1.352,0.133,2.693,0.13,4.021c-0.041,14.605-5.2,24.883-13.511,29.715l-12.26,7.127
							c8.314-4.834,13.47-15.109,13.511-29.715c0-1.328-0.05-2.672-0.13-4.021c-0.018-0.281-0.032-0.561-0.051-0.84
							c-0.1-1.316-0.22-2.641-0.391-3.973c-0.047-0.371-0.1-0.744-0.157-1.115c-0.088-0.619-0.177-1.238-0.28-1.859
							c-0.071-0.422-0.149-0.844-0.226-1.268c-0.108-0.6-0.225-1.201-0.347-1.809c-0.069-0.338-0.144-0.674-0.217-1.012
							c-0.334-1.541-0.712-3.086-1.137-4.633c-0.068-0.254-0.145-0.51-0.217-0.764c-0.377-1.332-0.78-2.664-1.219-3.992
							c-0.033-0.1-0.065-0.207-0.1-0.309c-0.431-1.289-0.9-2.574-1.384-3.857c-0.122-0.322-0.247-0.643-0.373-0.967
							c-0.422-1.082-0.864-2.162-1.324-3.238c-0.072-0.168-0.14-0.336-0.212-0.5c-0.519-1.193-1.064-2.379-1.629-3.557
							c-0.147-0.309-0.3-0.617-0.45-0.926c-0.459-0.936-0.931-1.867-1.415-2.791c-0.149-0.285-0.293-0.568-0.445-0.85
							c-0.62-1.158-1.26-2.307-1.919-3.445c-0.124-0.215-0.253-0.425-0.38-0.638c-0.584-0.989-1.185-1.97-1.8-2.942
							c-0.179-0.283-0.356-0.568-0.539-0.851c-0.763-1.183-1.544-2.349-2.345-3.5c-0.121-0.173-0.247-0.342-0.367-0.515
							c-0.839-1.184-1.697-2.346-2.574-3.488c-0.118-0.154-0.232-0.311-0.353-0.463c-1.103-1.42-2.237-2.803-3.405-4.148
							c-0.155-0.179-0.307-0.361-0.463-0.537c-0.71-0.813-1.431-1.609-2.159-2.392c-0.048-0.05-0.093-0.101-0.14-0.151
							c-0.776-0.827-1.564-1.635-2.363-2.425c-0.167-0.166-0.34-0.325-0.509-0.489c-1.039-1.018-2.096-2.002-3.17-2.955
							c-0.1-0.084-0.189-0.174-0.285-0.258c-1.108-0.975-2.238-1.9-3.381-2.8c-0.219-0.17-0.434-0.344-0.654-0.511
							c-1.123-0.867-2.259-1.691-3.408-2.477c-0.205-0.139-0.412-0.272-0.617-0.41c-1.207-0.799-2.42-1.576-3.651-2.287
							c-0.986-0.569-1.964-1.086-2.936-1.577C68.256,47.024,67.983,46.891,67.7,46.756z"/>
					</g>
					<g id="Group_76" transform="translate(16.812 144.994)">
						<g id="Group_73" transform="translate(41.521 47.046)">
							<path id="Path_256" fill="none" d="M36.305,54.345L25.63,60.546c0.323-0.166,0.707-0.158,1.024,0.018l10.673-6.201
								C37.011,54.187,36.627,54.179,36.305,54.345z"/>
							<path id="Path_257" fill="none" d="M54.485,52.319l10.673-6.199c-2.754-0.951-5.69-1.25-8.579-0.869L45.904,51.45
								C48.793,51.069,51.731,51.368,54.485,52.319z"/>
							<path id="Path_258" fill="none" d="M40.258,42.796l10.674-6.199c-0.269-0.428-0.633-0.785-1.064-1.047
								c-0.442-0.305-1.015-0.35-1.5-0.117l-10.673,6.199c0.485-0.23,1.058-0.186,1.5,0.121
								C39.627,42.013,39.991,42.37,40.258,42.796z"/>
							<g id="Group_72" transform="translate(0.623)">
								
									<linearGradient id="Path_259_1_" gradientUnits="userSpaceOnUse" x1="-428.5735" y1="176.0919" x2="-434.1224" y2="181.1238" gradientTransform="matrix(16.5071 0 0 -21.2369 7252.3384 3963.5039)">
									<stop  offset="0" style="stop-color:#006EE6"/>
									<stop  offset="0.979" style="stop-color:#00BFF9"/>
								</linearGradient>
								<path id="Path_259" fill="url(#Path_259_1_)" d="M59.632,95.458c4.56,2.631,8.267,0.52,8.281-4.721
									c0.015-5.238-3.667-11.617-8.226-14.252c-4.56-2.633-8.267-0.518-8.281,4.721C51.39,86.444,55.073,92.825,59.632,95.458z"/>
								
									<linearGradient id="Path_260_1_" gradientUnits="userSpaceOnUse" x1="-425.3748" y1="172.8488" x2="-433.0901" y2="179.926" gradientTransform="matrix(11.871 0 0 -15.096 5215.4751 2841.8965)">
									<stop  offset="0" style="stop-color:#0031BA"/>
									<stop  offset="1" style="stop-color:#0089F9"/>
								</linearGradient>
								<path id="Path_260" fill="url(#Path_260_1_)" d="M64.751,127.64c-0.004,0.355-0.187,0.688-0.485,0.881l10.673-6.201
									c0.3-0.191,0.482-0.523,0.485-0.881l0.712-8.014l-10.675,6.199L64.751,127.64z"/>
								
									<linearGradient id="Path_261_1_" gradientUnits="userSpaceOnUse" x1="-431.7938" y1="165.13" x2="-436.6098" y2="176.051" gradientTransform="matrix(19.027 0 0 -9.7823 8340.0537 1779.2198)">
									<stop  offset="0" style="stop-color:#0031BA"/>
									<stop  offset="1" style="stop-color:#0089F9"/>
								</linearGradient>
								<path id="Path_261" fill="url(#Path_261_1_)" d="M36.705,54.364c-0.021-0.012-0.043-0.021-0.066-0.029
									c-0.061-0.027-0.124-0.049-0.188-0.066c-0.047-0.014-0.094-0.023-0.142-0.031c-0.041-0.006-0.081-0.01-0.121-0.012
									c-0.04-0.004-0.074,0-0.109,0c-0.033,0-0.067,0.004-0.1,0.012c-0.032,0.006-0.065,0.012-0.101,0.021
									c-0.035,0.008-0.063,0.02-0.1,0.035c-0.032,0.012-0.063,0.027-0.094,0.043c0,0-0.007,0-0.01,0.006L25,60.544
									c0.004-0.002,0.008-0.004,0.01-0.006c0.03-0.016,0.061-0.031,0.095-0.045c0.032-0.014,0.065-0.023,0.1-0.031
									c0.032-0.01,0.063-0.02,0.1-0.025c0.037-0.006,0.068-0.008,0.101-0.012c0.036-0.002,0.073-0.002,0.109,0
									c0.089,0.004,0.177,0.02,0.263,0.043c0.063,0.018,0.126,0.039,0.187,0.064c0.023,0.008,0.046,0.02,0.068,0.029l7.323,3.445
									l10.673-6.201L36.705,54.364z"/>
								
									<linearGradient id="Path_262_1_" gradientUnits="userSpaceOnUse" x1="-435.9739" y1="184.714" x2="-438.2654" y2="186.1433" gradientTransform="matrix(39.98 0 0 -74.803 17644.5234 14056.8486)">
									<stop  offset="0" style="stop-color:#0031BA"/>
									<stop  offset="1" style="stop-color:#0089F9"/>
								</linearGradient>
								<path id="Path_262" fill="url(#Path_262_1_)" d="M105.579,96.015c0,0,0-0.006,0-0.01c0-0.002,0-0.023-0.006-0.031
									c-0.012-0.1-0.029-0.186-0.047-0.281c-0.009-0.041-0.021-0.084-0.032-0.127c0-0.021-0.01-0.041-0.017-0.063
									c-0.008-0.021-0.01-0.041-0.016-0.063c-0.021-0.074-0.042-0.146-0.065-0.219c-0.018-0.045-0.032-0.09-0.049-0.137
									c0-0.01-0.008-0.021-0.012-0.029c-0.002-0.012-0.007-0.023-0.012-0.033c-0.024-0.061-0.048-0.123-0.074-0.182
									s-0.051-0.115-0.08-0.174c-0.006-0.012-0.014-0.023-0.02-0.035l-0.015-0.027c-0.017-0.035-0.031-0.068-0.05-0.1
									c-0.03-0.057-0.059-0.105-0.089-0.158c-0.03-0.051-0.057-0.1-0.089-0.145c0,0,0,0,0-0.006s0,0,0-0.006l-0.1-0.154
									c-0.036-0.053-0.075-0.1-0.115-0.156c-0.014-0.016-0.027-0.031-0.039-0.047c-0.011-0.014-0.021-0.025-0.03-0.035
									c-0.022-0.027-0.042-0.057-0.065-0.08c-0.058-0.068-0.116-0.131-0.178-0.189c-0.008-0.01-0.015-0.012-0.022-0.021
									c-0.111-0.109-0.231-0.209-0.358-0.299l-7.313-5.006c-0.101-0.584-0.217-1.166-0.339-1.75
									c-0.014-0.064-0.022-0.127-0.034-0.189c-0.035-0.164-0.078-0.33-0.115-0.494c-0.059-0.268-0.12-0.533-0.184-0.801
									c-0.057-0.238-0.118-0.48-0.181-0.719c-0.068-0.268-0.136-0.531-0.208-0.801c-0.026-0.09-0.045-0.178-0.071-0.266
									c-0.025-0.088-0.047-0.148-0.067-0.219c-0.229-0.809-0.473-1.615-0.739-2.422c-0.012-0.031-0.021-0.068-0.032-0.1
									c-0.023-0.074-0.053-0.148-0.078-0.221c-0.25-0.738-0.517-1.479-0.8-2.219c-0.015-0.037-0.026-0.076-0.041-0.115
									c-0.008-0.018-0.015-0.031-0.021-0.049c-0.2-0.514-0.405-1.025-0.614-1.537l4.708-3.793
									c0.078-0.064,0.144-0.141,0.193-0.229c0.018-0.029,0.026-0.068,0.042-0.1c0.032-0.066,0.059-0.137,0.077-0.207
									c0.012-0.049,0.021-0.098,0.026-0.146c0.015-0.072,0.024-0.146,0.029-0.223c0-0.055,0-0.115,0-0.172
									c0-0.084,0-0.162-0.015-0.248c0-0.02,0-0.037,0-0.059c-0.012-0.1-0.029-0.191-0.05-0.287c0,0,0-0.01,0-0.014
									c0-0.002,0-0.012-0.006-0.018c-0.015-0.07-0.032-0.145-0.053-0.215c-0.021-0.072-0.042-0.148-0.068-0.221
									c0,0,0-0.006,0-0.01v-0.008c-0.021-0.064-0.044-0.127-0.067-0.191c-0.024-0.066-0.054-0.135-0.081-0.201
									c-0.012-0.021-0.021-0.041-0.03-0.059s-0.012-0.027-0.019-0.041c-0.014-0.029-0.028-0.063-0.042-0.096
									c-0.031-0.064-0.063-0.129-0.1-0.191s-0.062-0.115-0.1-0.174l-4.5-7.801c0-0.006-0.009-0.014-0.013-0.02
									c-0.039-0.068-0.08-0.135-0.121-0.201s-0.088-0.133-0.133-0.199c-0.02-0.031-0.039-0.057-0.06-0.084
									c-0.01-0.014-0.021-0.027-0.032-0.041c-0.02-0.027-0.038-0.055-0.059-0.08c-0.06-0.076-0.118-0.15-0.179-0.219
									c-0.028-0.031-0.056-0.059-0.085-0.092c-0.028-0.033-0.047-0.051-0.071-0.076c-0.025-0.027-0.054-0.061-0.081-0.086
									c-0.061-0.061-0.122-0.109-0.184-0.162c-0.039-0.035-0.078-0.07-0.115-0.1c-0.117-0.094-0.24-0.18-0.368-0.256
									c-0.082-0.049-0.168-0.09-0.255-0.127c-0.007,0-0.015,0-0.021-0.006c-0.017-0.008-0.035-0.014-0.053-0.018
									c-0.041-0.02-0.084-0.033-0.128-0.045c-0.032-0.01-0.063-0.016-0.092-0.021c-0.011-0.002-0.021-0.006-0.032-0.006
									c-0.008,0-0.018,0-0.024-0.006c-0.041-0.006-0.081-0.008-0.121-0.012s-0.068,0-0.1,0l0,0l0,0
									c-0.031,0-0.062,0.004-0.092,0.01s-0.058,0.012-0.088,0.02c-0.021,0.006-0.041,0.014-0.061,0.021l-5.672,2.121
									c-0.089-0.115-0.178-0.232-0.27-0.348c-0.1-0.133-0.21-0.262-0.312-0.398c-0.2-0.248-0.394-0.496-0.594-0.742
									c-0.153-0.186-0.307-0.371-0.462-0.559c-0.2-0.238-0.4-0.477-0.601-0.713c-0.071-0.084-0.14-0.168-0.211-0.25
									c-0.071-0.084-0.139-0.15-0.207-0.227c-0.336-0.383-0.674-0.76-1.02-1.131c-0.101-0.105-0.2-0.219-0.3-0.324
									c-0.436-0.463-0.875-0.916-1.32-1.357c-0.029-0.027-0.054-0.057-0.083-0.086c-0.071-0.068-0.146-0.133-0.216-0.199
									c-0.374-0.367-0.752-0.725-1.134-1.076c-0.131-0.121-0.262-0.242-0.399-0.359c-0.475-0.428-0.953-0.85-1.438-1.252
									l-10.673,6.199c0.484,0.4,0.964,0.826,1.438,1.252c0.131,0.121,0.262,0.242,0.394,0.359
									c0.382,0.354,0.759,0.713,1.133,1.076c0.101,0.1,0.2,0.191,0.301,0.287c0.446,0.445,0.887,0.9,1.321,1.359l0.3,0.326
									c0.345,0.371,0.683,0.746,1.019,1.129c0.14,0.158,0.281,0.316,0.418,0.479c0.2,0.232,0.4,0.473,0.6,0.711
									c0.155,0.188,0.31,0.371,0.463,0.561c0.2,0.244,0.4,0.496,0.595,0.742c0.193,0.248,0.391,0.492,0.581,0.742l5.672-2.125
									c0.076-0.027,0.155-0.045,0.236-0.049l0,0c0.084-0.006,0.168,0,0.25,0.016c0.011,0.002,0.021,0.004,0.032,0.006
									c0.075,0.016,0.148,0.037,0.221,0.064l0.051,0.018c0.095,0.037,0.187,0.082,0.274,0.133
									c0.129,0.076,0.252,0.162,0.368,0.256c0.039,0.033,0.078,0.072,0.118,0.107c0.089,0.076,0.177,0.156,0.264,0.246
									c0.024,0.023,0.049,0.049,0.072,0.076c0.113,0.125,0.221,0.252,0.321,0.387c0.01,0.016,0.021,0.029,0.032,0.041
									c0.112,0.156,0.223,0.324,0.325,0.5l4.5,7.793c0.09,0.154,0.166,0.307,0.237,0.461c0.006,0.014,0.012,0.025,0.019,0.041
									c0.067,0.15,0.128,0.299,0.178,0.449c0,0.004,0,0.008,0,0.01c0.049,0.146,0.091,0.295,0.124,0.445c0,0.006,0,0.012,0,0.021
									c0.024,0.117,0.043,0.236,0.056,0.355c0.009,0.086,0.011,0.166,0.014,0.246c0,0.061,0,0.119,0,0.174
									c-0.005,0.076-0.015,0.152-0.029,0.227c-0.008,0.047-0.013,0.1-0.024,0.141c-0.02,0.072-0.047,0.141-0.08,0.207
									c-0.015,0.033-0.025,0.072-0.042,0.102c-0.05,0.088-0.115,0.166-0.191,0.23l-4.708,3.793
									c0.213,0.512,0.415,1.021,0.613,1.533c0.021,0.057,0.039,0.113,0.063,0.168c0.282,0.732,0.549,1.473,0.8,2.221
									c0.036,0.102,0.074,0.211,0.109,0.316c0.267,0.807,0.514,1.613,0.741,2.42c0.045,0.162,0.094,0.328,0.139,0.49
									c0.073,0.266,0.14,0.531,0.208,0.799c0.062,0.242,0.122,0.48,0.181,0.721c0.063,0.27,0.124,0.533,0.184,0.799
									c0.051,0.225,0.1,0.451,0.148,0.676c0.124,0.586,0.238,1.168,0.339,1.752l7.313,5.006c0.128,0.09,0.248,0.189,0.358,0.301
									c0.094,0.09,0.182,0.186,0.265,0.285l0.032,0.035c0.093,0.115,0.181,0.238,0.261,0.365l0,0
									c0.081,0.129,0.157,0.266,0.226,0.398l0.015,0.027c0.067,0.139,0.13,0.281,0.184,0.424c0,0.012,0.008,0.021,0.012,0.033
									c0.05,0.139,0.095,0.277,0.13,0.414c0.007,0.021,0.012,0.045,0.018,0.064c0.032,0.137,0.059,0.27,0.078,0.4
									c0,0.012,0,0.021,0.006,0.033c0.021,0.15,0.03,0.301,0.03,0.453v0.064l-8.964,5.209c-0.564,2.846-1.79,5.516-3.576,7.801
									l4.672,9.207c0.068,0.137,0.128,0.277,0.18,0.422l0.009,0.023c0.047,0.135,0.086,0.273,0.115,0.412c0,0.01,0,0.018,0,0.023
									c0.018,0.094,0.03,0.188,0.038,0.281c0.014,0.139,0.018,0.277,0.011,0.416c0,0.023,0,0.049,0,0.074
									c-0.014,0.145-0.045,0.289-0.092,0.426c-0.012,0.035-0.029,0.068-0.042,0.102c-0.039,0.096-0.088,0.186-0.146,0.271
									c-0.022,0.029-0.042,0.063-0.067,0.092c-0.083,0.1-0.181,0.184-0.291,0.25l10.673-6.199
									c0.112-0.066,0.211-0.152,0.293-0.254c0.024-0.029,0.046-0.061,0.066-0.092c0.059-0.084,0.108-0.174,0.147-0.27
									c0.016-0.033,0.029-0.066,0.041-0.1c0.047-0.139,0.078-0.281,0.092-0.428c0-0.023,0-0.049,0-0.074
									c0.009-0.137,0.006-0.277-0.01-0.414c0-0.023,0-0.045,0-0.068c-0.009-0.07-0.022-0.143-0.036-0.213c0-0.01,0-0.016,0-0.023
									c0-0.01,0-0.01,0-0.012c-0.014-0.063-0.028-0.127-0.045-0.189c-0.016-0.063-0.032-0.111-0.051-0.168
									c-0.005-0.014-0.011-0.029-0.017-0.043c-0.003-0.008-0.006-0.016-0.01-0.023c-0.009-0.031-0.02-0.057-0.029-0.084
									c-0.019-0.047-0.036-0.1-0.058-0.143c-0.021-0.041-0.039-0.092-0.062-0.135l-0.032-0.063l-4.672-9.209
									c0.722-0.906,1.344-1.889,1.855-2.93l-0.01,3.4c0.06,0.537-0.169,1.066-0.6,1.393l10.673-6.199
									c0.096-0.055,0.181-0.127,0.25-0.213c0.251-0.342,0.375-0.758,0.352-1.182l0.021-7.338
									C105.612,96.288,105.6,96.151,105.579,96.015z"/>
								
									<linearGradient id="Path_263_1_" gradientUnits="userSpaceOnUse" x1="-437.3235" y1="178.8898" x2="-439.4175" y2="183.3738" gradientTransform="matrix(43.754 0 0 -23.8363 19280.0059 4414.313)">
									<stop  offset="0" style="stop-color:#0031BA"/>
									<stop  offset="1" style="stop-color:#0089F9"/>
								</linearGradient>
								<path id="Path_263" fill="url(#Path_263_1_)" d="M75.644,44.107c0-0.043-0.009-0.088-0.015-0.133
									c-0.01-0.074-0.022-0.15-0.038-0.223c0-0.016-0.008-0.031-0.012-0.047l-0.009-0.035c-0.008-0.031-0.016-0.068-0.024-0.1
									c-0.017-0.057-0.031-0.109-0.051-0.164c-0.019-0.055-0.032-0.092-0.05-0.139c0,0,0-0.006,0-0.01v-0.008
									c-0.021-0.051-0.039-0.102-0.063-0.152c-0.022-0.051-0.044-0.1-0.068-0.15c-0.018-0.035-0.033-0.07-0.052-0.1
									c-0.002-0.008-0.006-0.016-0.011-0.021c-0.004-0.01-0.009-0.02-0.015-0.029c-0.029-0.055-0.056-0.102-0.086-0.154
									c-0.03-0.055-0.065-0.109-0.101-0.162c-0.011-0.014-0.022-0.031-0.031-0.047l-0.023-0.035
									c-0.02-0.025-0.038-0.055-0.057-0.086c-0.044-0.061-0.089-0.121-0.135-0.178c-0.021-0.031-0.044-0.053-0.064-0.08
									c-0.021-0.027-0.03-0.035-0.044-0.053c-0.014-0.02-0.038-0.051-0.06-0.074c-0.074-0.086-0.153-0.168-0.233-0.248
									c0,0,0-0.006-0.006-0.006c-0.077-0.076-0.159-0.145-0.24-0.213c-0.041-0.035-0.081-0.074-0.124-0.105
									c-0.124-0.096-0.253-0.184-0.388-0.264l-6.387-3.689c-0.104-0.059-0.212-0.111-0.323-0.156
									c-0.029-0.014-0.054-0.02-0.08-0.031l-0.083-0.027c-0.033-0.014-0.066-0.025-0.101-0.035
									c-0.063-0.018-0.129-0.031-0.194-0.041l-0.054-0.006c-0.012,0-0.022,0-0.032,0l-0.074-0.008c-0.048,0-0.101,0-0.141,0
									c-0.042,0.002-0.083,0.006-0.125,0.014h-0.008h-0.006c-0.033,0.008-0.066,0.014-0.1,0.021
									c-0.034,0.01-0.069,0.023-0.101,0.039c-0.031,0.014-0.064,0.029-0.1,0.043c0,0-0.007,0.006-0.01,0.006l-10.676,6.201
									c0.096-0.055,0.2-0.094,0.309-0.113c0,0,0,0,0.006,0c0.114-0.018,0.23-0.021,0.345-0.008c0.012,0,0.023,0,0.032,0
									c0.119,0.018,0.236,0.045,0.35,0.082c0.027,0.01,0.055,0.018,0.081,0.031c0.139,0.049,0.272,0.111,0.4,0.186l2.6,1.5
									l-0.114-0.012c-0.593-0.027-1.188-0.021-1.779,0.018c-0.451,0.027-0.896,0.076-1.329,0.143l-5.647-8.656
									c-0.025-0.039-0.05-0.078-0.076-0.115c-0.027-0.039-0.068-0.1-0.101-0.139s-0.084-0.107-0.127-0.158
									c-0.057-0.064-0.115-0.127-0.175-0.186c-0.175-0.174-0.37-0.326-0.582-0.451c-0.087-0.049-0.177-0.094-0.269-0.133
									c-0.077-0.031-0.155-0.059-0.235-0.08c-0.061-0.018-0.123-0.031-0.186-0.041c-0.054-0.006-0.106-0.012-0.159-0.016
									c-0.049-0.002-0.097-0.002-0.146,0c-0.045,0.004-0.09,0.01-0.134,0.02c-0.042,0.006-0.084,0.016-0.125,0.029
									c-0.041,0.012-0.08,0.025-0.119,0.041c-0.039,0.018-0.078,0.035-0.116,0.057c0,0-0.006,0-0.01,0.006l-4.53,2.58
									l-10.673,6.201l4.53-2.584c0,0,0.006,0,0.01-0.008c0.036-0.02,0.075-0.037,0.115-0.055c0.039-0.016,0.08-0.029,0.121-0.041
									s0.083-0.021,0.125-0.031c0.044-0.008,0.089-0.012,0.134-0.014c0.047,0,0.1,0,0.146,0c0.053,0.002,0.106,0.008,0.159,0.018
									c0.063,0.01,0.124,0.021,0.185,0.037c0.08,0.021,0.158,0.049,0.234,0.08c0.094,0.041,0.184,0.086,0.271,0.137
									c0.212,0.123,0.408,0.273,0.582,0.447c0.059,0.061,0.118,0.121,0.175,0.188c0.042,0.049,0.086,0.1,0.127,0.156
									s0.069,0.092,0.1,0.143c0.031,0.049,0.052,0.074,0.077,0.111l5.646,8.656c0.435-0.066,0.877-0.113,1.329-0.143
									c0.593-0.037,1.187-0.041,1.779-0.014c0.67,0.029,1.338,0.096,2,0.199c0.799,0.121,1.59,0.289,2.369,0.5
									c0.362,0.1,0.729,0.207,1.101,0.324l8.881-5.162l0.226,0.133c0.136,0.078,0.266,0.166,0.39,0.262
									c0.041,0.033,0.081,0.072,0.121,0.105c0.083,0.068,0.164,0.139,0.24,0.213c0.106,0.104,0.206,0.213,0.3,0.328
									c0.018,0.018,0.032,0.035,0.046,0.053c0.091,0.111,0.175,0.227,0.256,0.348c0.008,0.008,0.015,0.02,0.022,0.031
									c0.084,0.127,0.16,0.26,0.231,0.393l0.011,0.021c0.069,0.133,0.131,0.271,0.185,0.41c0.001,0.004,0.001,0.008,0,0.01
									c0.051,0.131,0.092,0.264,0.125,0.4c0,0.012,0.007,0.023,0.01,0.035c0.03,0.133,0.052,0.27,0.063,0.406l0.662,8.807
									l10.673-6.199L75.644,44.107z"/>
								
									<linearGradient id="Path_264_1_" gradientUnits="userSpaceOnUse" x1="-435.1966" y1="182.9591" x2="-437.8377" y2="185.0702" gradientTransform="matrix(34.6761 0 0 -50.6199 15273.7988 9497.8164)">
									<stop  offset="0" style="stop-color:#0031BA"/>
									<stop  offset="1" style="stop-color:#0089F9"/>
								</linearGradient>
								<path id="Path_264" fill="url(#Path_264_1_)" d="M74.565,109.46c-3.186,0.674-7.038-0.076-11.187-2.473
									c-10.916-6.301-19.74-21.586-19.705-34.139c0.018-5.678,1.852-9.818,4.862-12.068c-5.2,1.1-8.626,6-8.647,13.775
									c-0.034,12.547,8.788,27.832,19.707,34.135C65.565,112.142,70.927,112.183,74.565,109.46z"/>
							</g>
							
								<linearGradient id="Path_265_1_" gradientUnits="userSpaceOnUse" x1="-438.1791" y1="185.3038" x2="-438.9031" y2="186.1408" gradientTransform="matrix(70.546 0 0 -88.9744 31073.8848 16721.6211)">
								<stop  offset="0" style="stop-color:#006EE6"/>
								<stop  offset="0.979" style="stop-color:#00BFF9"/>
							</linearGradient>
							<path id="Path_265" fill="url(#Path_265_1_)" d="M25.006,69.282c0.028,1.268,0.62,2.459,1.613,3.246l7.318,5.01
								c0.725,4.084,1.905,8.072,3.521,11.893l-4.713,3.789c-0.588,0.48-0.471,1.834,0.272,3.113l4.5,7.799
								c0.355,0.656,0.871,1.209,1.5,1.611c0.31,0.217,0.699,0.285,1.064,0.186l5.678-2.123c2.508,3.316,5.377,6.344,8.556,9.025
								l0.659,8.799c0.185,1.254,0.917,2.363,2,3.023l6.386,3.688c1.05,0.605,1.927,0.301,2.012-0.699l0.711-8.016
								c2.755,0.949,5.691,1.246,8.58,0.869l5.643,8.652c0.267,0.428,0.632,0.785,1.063,1.043c0.442,0.305,1.015,0.352,1.5,0.121
								l4.53-2.582c0.742-0.42,0.866-1.635,0.284-2.791l-4.673-9.207c1.787-2.285,3.012-4.957,3.577-7.801l7.317,3.441
								c0.919,0.43,1.623-0.172,1.626-1.375l0.021-7.34c-0.025-1.27-0.617-2.461-1.612-3.248l-7.313-5.004
								c-0.726-4.084-1.907-8.072-3.521-11.893l4.708-3.793c0.587-0.48,0.471-1.832-0.269-3.111l-4.5-7.793
								c-0.355-0.656-0.871-1.211-1.5-1.615c-0.311-0.217-0.701-0.283-1.066-0.184l-5.672,2.123
								c-2.509-3.316-5.378-6.342-8.556-9.023L65.59,50.31c-0.183-1.256-0.916-2.363-2-3.02l-6.386-3.689
								c-1.048-0.6-1.925-0.301-2.017,0.699l-0.7,8.018c-2.754-0.951-5.692-1.248-8.581-0.869l-5.646-8.656
								c-0.268-0.426-0.632-0.783-1.063-1.043c-0.442-0.307-1.015-0.352-1.5-0.121l-4.53,2.584
								c-0.747,0.418-0.872,1.633-0.288,2.789l4.678,9.209c-1.79,2.283-3.016,4.955-3.577,7.801l-7.323-3.445
								c-0.913-0.426-1.623,0.17-1.626,1.377L25.006,69.282z M40.511,74.556c0.035-12.545,8.918-17.605,19.834-11.299
								c10.918,6.305,19.74,21.586,19.705,34.129c-0.034,12.541-8.91,17.613-19.832,11.307
								c-10.921-6.305-19.742-21.586-19.707-34.135V74.556z"/>
						</g>
						<g id="Group_75">
							<path id="Path_266" fill="none" d="M31.887,46.893l-6.5,3.777c0.196-0.102,0.431-0.098,0.623,0.012l6.5-3.779
								C32.318,46.795,32.083,46.789,31.887,46.893z"/>
							<path id="Path_267" fill="none" d="M42.958,45.66l6.5-3.777c-1.677-0.578-3.466-0.762-5.225-0.531l-6.5,3.779
								C39.492,44.901,41.28,45.082,42.958,45.66z"/>
							<path id="Path_268" fill="none" d="M34.295,39.86l6.5-3.775c-0.163-0.262-0.386-0.48-0.649-0.639
								c-0.269-0.186-0.618-0.215-0.913-0.07l-6.5,3.777c0.296-0.143,0.645-0.115,0.913,0.072
								C33.909,39.381,34.132,39.6,34.295,39.86z"/>
							<g id="Group_74" transform="translate(0.38)">
								
									<linearGradient id="Path_269_1_" gradientUnits="userSpaceOnUse" x1="-380.1353" y1="216.8118" x2="-385.6835" y2="221.844" gradientTransform="matrix(10.053 0 0 -12.9287 3968.6689 2987.1123)">
									<stop  offset="0" style="stop-color:#006EE6"/>
									<stop  offset="0.979" style="stop-color:#00BFF9"/>
								</linearGradient>
								<path id="Path_269" fill="url(#Path_269_1_)" d="M46.094,71.93c2.777,1.6,5.034,0.314,5.043-2.875
									c-0.185-3.527-2.047-6.754-5.01-8.676c-2.776-1.602-5.034-0.318-5.043,2.871C41.27,66.778,43.132,70.004,46.094,71.93z"/>
								
									<linearGradient id="Path_270_1_" gradientUnits="userSpaceOnUse" x1="-374.3789" y1="211.0442" x2="-382.0955" y2="218.1228" gradientTransform="matrix(7.233 0 0 -9.196 2847.4741 2129.7759)">
									<stop  offset="0" style="stop-color:#0031BA"/>
									<stop  offset="1" style="stop-color:#0089F9"/>
								</linearGradient>
								<path id="Path_270" fill="url(#Path_270_1_)" d="M49.212,91.531c-0.004,0.219-0.117,0.42-0.3,0.537l6.5-3.777
									c0.185-0.119,0.297-0.32,0.3-0.539l0.433-4.879l-6.5,3.777L49.212,91.531z"/>
								
									<linearGradient id="Path_271_1_" gradientUnits="userSpaceOnUse" x1="-386.0015" y1="202.4827" x2="-390.8147" y2="213.3934" gradientTransform="matrix(11.583 0 0 -5.9627 4565.1416 1331.0184)">
									<stop  offset="0" style="stop-color:#0031BA"/>
									<stop  offset="1" style="stop-color:#0089F9"/>
								</linearGradient>
								<path id="Path_271" fill="url(#Path_271_1_)" d="M32.132,46.905c-0.014-0.006-0.027-0.012-0.041-0.018
									c-0.036-0.016-0.074-0.029-0.113-0.041c-0.029-0.008-0.059-0.014-0.088-0.018s-0.048-0.006-0.074-0.008
									c-0.021-0.002-0.044-0.002-0.065,0c-0.021,0-0.042,0.002-0.063,0.006c-0.021,0-0.041,0.01-0.06,0.016
									c-0.02,0.006-0.039,0.012-0.058,0.02c-0.02,0.008-0.037,0.02-0.056,0.027c-0.002,0.002-0.004,0.002-0.006,0l-6.5,3.779
									c0,0,0,0,0.006,0l0.056-0.027c0.019-0.01,0.038-0.016,0.058-0.021s0.038-0.01,0.059-0.016
									c0.021-0.004,0.042-0.006,0.063-0.006c0.022-0.002,0.045-0.002,0.067,0c0.025,0,0.05,0.004,0.074,0.006l0.086,0.02
									c0.036,0.012,0.075,0.023,0.115,0.039l0.041,0.02l4.459,2.1l6.5-3.781L32.132,46.905z"/>
								
									<linearGradient id="Path_272_1_" gradientUnits="userSpaceOnUse" x1="-391.0811" y1="229.7327" x2="-393.3716" y2="231.1613" gradientTransform="matrix(24.337 0 0 -45.563 9696.083 10671.6162)">
									<stop  offset="0" style="stop-color:#0031BA"/>
									<stop  offset="1" style="stop-color:#0089F9"/>
								</linearGradient>
								<path id="Path_272" fill="url(#Path_272_1_)" d="M74.074,72.272c-0.001-0.002-0.001-0.004,0-0.006
									c-0.001-0.006-0.001-0.014,0-0.02c-0.01-0.057-0.019-0.113-0.03-0.168c-0.006-0.027-0.014-0.053-0.021-0.076
									c-0.006-0.025-0.006-0.027-0.009-0.039c-0.002-0.014-0.005-0.025-0.01-0.037c-0.012-0.047-0.026-0.092-0.039-0.137
									c-0.011-0.027-0.02-0.053-0.03-0.082c0-0.008,0-0.014-0.008-0.02c-0.003-0.006-0.006-0.014-0.008-0.02
									c-0.015-0.035-0.03-0.074-0.045-0.113c-0.016-0.037-0.032-0.068-0.047-0.1l-0.013-0.023
									c-0.003-0.006-0.006-0.01-0.008-0.016c-0.012-0.021-0.021-0.041-0.032-0.063c-0.011-0.02-0.034-0.064-0.053-0.1
									c-0.018-0.035-0.035-0.059-0.053-0.086v-0.006l0,0c-0.021-0.029-0.041-0.063-0.063-0.092
									c-0.021-0.029-0.045-0.064-0.068-0.1c-0.008-0.01-0.018-0.02-0.026-0.031s-0.012-0.014-0.018-0.02s-0.027-0.033-0.039-0.051
									c-0.035-0.037-0.071-0.076-0.107-0.115l-0.014-0.008c-0.068-0.068-0.142-0.129-0.219-0.184l-4.453-3.049
									c-0.063-0.354-0.131-0.711-0.207-1.068c-0.008-0.037-0.015-0.072-0.023-0.111c-0.021-0.1-0.047-0.199-0.068-0.301
									c-0.036-0.16-0.072-0.32-0.11-0.482s-0.074-0.291-0.11-0.439c-0.036-0.146-0.085-0.322-0.128-0.484
									c-0.015-0.055-0.026-0.107-0.042-0.162c-0.015-0.055-0.028-0.088-0.039-0.135c-0.14-0.49-0.288-0.982-0.453-1.475
									l-0.018-0.063c-0.017-0.043-0.033-0.088-0.048-0.133c-0.154-0.451-0.314-0.9-0.484-1.352l-0.026-0.072
									c-0.004-0.01-0.008-0.02-0.013-0.029c-0.121-0.313-0.244-0.625-0.374-0.934l2.866-2.311
									c0.048-0.039,0.088-0.088,0.118-0.143c0.011-0.018,0.017-0.041,0.027-0.061c0.02-0.041,0.035-0.082,0.047-0.125
									c0.006-0.029,0.012-0.059,0.015-0.088c0.009-0.045,0.016-0.092,0.019-0.137c0-0.035,0-0.07,0-0.105
									c0-0.051-0.003-0.102-0.009-0.152c0-0.014,0-0.023,0-0.037c-0.008-0.057-0.018-0.115-0.031-0.174c0-0.002,0-0.004,0-0.006
									c0.001-0.004,0.001-0.008,0-0.012c-0.01-0.043-0.021-0.088-0.032-0.133c-0.013-0.043-0.026-0.088-0.041-0.137l0,0
									c0-0.002,0-0.004,0-0.006c-0.014-0.037-0.027-0.076-0.041-0.117c-0.018-0.037-0.032-0.08-0.05-0.121
									c-0.007-0.012-0.013-0.023-0.019-0.037c-0.004-0.008-0.008-0.016-0.011-0.025l-0.027-0.055
									c-0.02-0.039-0.038-0.08-0.06-0.119c-0.022-0.037-0.036-0.07-0.058-0.105l-2.758-4.746l-0.008-0.016
									c-0.024-0.041-0.048-0.08-0.074-0.117c-0.025-0.039-0.053-0.084-0.081-0.121c-0.012-0.018-0.023-0.033-0.035-0.051
									c-0.007-0.008-0.014-0.018-0.02-0.027c-0.014-0.014-0.024-0.031-0.036-0.047c-0.035-0.047-0.072-0.092-0.108-0.133
									c-0.018-0.02-0.033-0.037-0.051-0.055l-0.044-0.047l-0.048-0.055c-0.036-0.035-0.075-0.064-0.112-0.1
									c-0.036-0.035-0.047-0.043-0.07-0.063c-0.071-0.057-0.146-0.109-0.226-0.156c-0.05-0.029-0.102-0.057-0.154-0.08
									c-0.004,0.002-0.009,0.002-0.013,0c-0.011-0.002-0.021-0.006-0.032-0.012l-0.077-0.027c-0.019-0.006-0.036-0.01-0.055-0.012
									c-0.008,0-0.014,0-0.02,0h-0.015c-0.025-0.004-0.05-0.008-0.074-0.01c-0.021,0-0.042,0-0.063,0l0,0
									c-0.019,0.002-0.037,0.004-0.056,0.006c-0.019,0.004-0.036,0.008-0.053,0.014l-0.036,0.012L61.46,51.52
									c-0.054-0.072-0.109-0.143-0.164-0.213c-0.055-0.072-0.127-0.158-0.19-0.238c-0.119-0.154-0.237-0.301-0.36-0.455
									c-0.095-0.113-0.188-0.225-0.282-0.338c-0.121-0.148-0.243-0.291-0.365-0.436c-0.044-0.051-0.086-0.102-0.128-0.152
									s-0.084-0.1-0.127-0.139c-0.2-0.234-0.41-0.463-0.62-0.689c-0.06-0.064-0.121-0.133-0.181-0.199
									c-0.267-0.283-0.534-0.559-0.807-0.828c-0.017-0.018-0.031-0.035-0.05-0.051c-0.042-0.043-0.087-0.082-0.13-0.125
									c-0.228-0.221-0.458-0.439-0.69-0.654c-0.08-0.074-0.158-0.148-0.24-0.221c-0.288-0.262-0.581-0.518-0.875-0.762l-6.5,3.777
									c0.3,0.244,0.588,0.5,0.876,0.762c0.08,0.072,0.158,0.145,0.238,0.219c0.231,0.217,0.463,0.434,0.69,0.658l0.182,0.174
									c0.271,0.271,0.538,0.545,0.8,0.828c0.062,0.064,0.121,0.133,0.183,0.199c0.21,0.227,0.415,0.457,0.62,0.686l0.255,0.295
									c0.122,0.143,0.243,0.285,0.364,0.43c0.1,0.115,0.188,0.227,0.284,0.342c0.121,0.152,0.24,0.301,0.36,0.455
									s0.237,0.299,0.354,0.451l3.455-1.293c0.046-0.018,0.095-0.029,0.145-0.031l0,0c0.051-0.002,0.102,0,0.152,0.01h0.02
									c0.046,0.01,0.091,0.023,0.134,0.041l0.032,0.008c0.058,0.025,0.113,0.053,0.167,0.084c0.079,0.045,0.154,0.098,0.224,0.156
									c0.023,0.02,0.047,0.041,0.07,0.063c0.055,0.047,0.109,0.1,0.161,0.15c0.016,0.02,0.029,0.033,0.042,0.047
									c0.068,0.074,0.133,0.154,0.2,0.236l0.02,0.027c0.072,0.096,0.139,0.195,0.2,0.299l2.74,4.746
									c0.054,0.1,0.1,0.189,0.146,0.285c0.004,0.006,0.008,0.016,0.012,0.023c0.041,0.092,0.077,0.182,0.106,0.275v0.006
									c0.032,0.092,0.055,0.182,0.075,0.271c0,0.004,0,0.008,0,0.012c0.016,0.072,0.026,0.145,0.032,0.219
									c0.006,0.051,0.008,0.1,0.009,0.152c0,0.033,0,0.07,0,0.105c-0.003,0.045-0.01,0.09-0.018,0.135
									c-0.006,0.031-0.008,0.063-0.016,0.09c-0.013,0.043-0.028,0.086-0.048,0.127c-0.008,0.02-0.017,0.039-0.026,0.059
									c-0.03,0.055-0.07,0.102-0.116,0.143l-2.866,2.311c0.128,0.309,0.253,0.621,0.373,0.934c0.014,0.031,0.026,0.068,0.038,0.1
									c0.172,0.451,0.334,0.902,0.485,1.352c0.023,0.066,0.045,0.131,0.066,0.195c0.161,0.492,0.312,0.98,0.451,1.475
									c0.029,0.1,0.056,0.199,0.085,0.299c0.044,0.162,0.086,0.322,0.127,0.484s0.075,0.291,0.11,0.438
									c0.034,0.148,0.074,0.324,0.111,0.486c0.032,0.139,0.063,0.275,0.092,0.412c0.074,0.355,0.146,0.715,0.206,1.066
									l4.453,3.051c0.078,0.055,0.151,0.115,0.22,0.182c0.057,0.055,0.11,0.113,0.16,0.174l0.019,0.023
									c0.057,0.07,0.109,0.145,0.158,0.221l0,0c0.05,0.078,0.097,0.16,0.139,0.244l0.008,0.014c0.043,0.084,0.08,0.172,0.112,0.26
									c0.003,0.006,0.006,0.014,0.008,0.021c0.031,0.082,0.058,0.166,0.08,0.252c0,0.012,0.006,0.027,0.009,0.039
									c0.021,0.08,0.036,0.164,0.048,0.246c0.001,0.006,0.001,0.012,0,0.018c0.014,0.094,0.021,0.186,0.021,0.279v0.041
									l-5.46,3.17c-0.345,1.732-1.091,3.357-2.177,4.75l2.845,5.607c0.041,0.084,0.078,0.17,0.108,0.258
									c0.002,0.004,0.004,0.01,0.007,0.014c0.028,0.082,0.052,0.166,0.068,0.25c0,0.006,0,0.01,0,0.016
									c0.013,0.059,0.019,0.115,0.024,0.17c0.009,0.084,0.011,0.168,0.006,0.254c0,0.014,0,0.029,0,0.043
									c-0.008,0.088-0.026,0.176-0.054,0.26c-0.008,0.023-0.019,0.041-0.026,0.063c-0.024,0.057-0.055,0.111-0.091,0.162
									l-0.041,0.057c-0.051,0.061-0.111,0.113-0.178,0.154l6.5-3.777c0.067-0.043,0.128-0.096,0.178-0.158
									c0.014-0.016,0.027-0.033,0.039-0.053c0.035-0.051,0.065-0.105,0.09-0.164c0.01-0.02,0.02-0.041,0.027-0.063
									c0.027-0.084,0.046-0.17,0.054-0.26c0-0.014,0-0.031,0-0.043c0.004-0.084,0.001-0.17-0.008-0.254c0-0.014,0-0.027,0-0.041
									c-0.006-0.043-0.015-0.086-0.023-0.129c0-0.006,0-0.01,0-0.016c0.001-0.002,0.001-0.004,0-0.006
									c-0.008-0.039-0.018-0.078-0.028-0.119c-0.012-0.041-0.021-0.064-0.032-0.1c0-0.008-0.008-0.018-0.011-0.027
									c0-0.004,0-0.01,0-0.014c-0.006-0.018-0.013-0.035-0.021-0.051c-0.011-0.029-0.023-0.059-0.033-0.086
									s-0.025-0.057-0.038-0.082c-0.005-0.014-0.012-0.027-0.02-0.039l-2.845-5.607c0.438-0.553,0.817-1.154,1.13-1.789
									l-0.006,2.074c0.035,0.328-0.104,0.65-0.365,0.85l6.5-3.777c0.058-0.035,0.109-0.078,0.151-0.131
									c0.154-0.207,0.23-0.463,0.217-0.721l0.012-4.469C74.087,72.446,74.083,72.358,74.074,72.272z"/>
								
									<linearGradient id="Path_273_1_" gradientUnits="userSpaceOnUse" x1="-393.7764" y1="221.884" x2="-395.8703" y2="226.3681" gradientTransform="matrix(26.653 0 0 -14.527 10603.1563 3339.718)">
									<stop  offset="0" style="stop-color:#0031BA"/>
									<stop  offset="1" style="stop-color:#0089F9"/>
								</linearGradient>
								<path id="Path_273" fill="url(#Path_273_1_)" d="M55.846,40.658c0-0.027,0-0.055-0.009-0.084
									c-0.006-0.043-0.014-0.088-0.024-0.135c0-0.01,0-0.018-0.006-0.029c-0.003-0.008-0.005-0.016-0.006-0.023
									c0-0.021-0.009-0.039-0.015-0.061c-0.007-0.02-0.021-0.064-0.032-0.1c-0.009-0.029-0.02-0.057-0.032-0.084c0,0,0,0,0-0.006
									s0,0,0-0.006l-0.038-0.094l-0.041-0.092l-0.032-0.063c-0.001-0.004-0.003-0.01-0.006-0.014
									c-0.002-0.006-0.005-0.012-0.009-0.018c-0.017-0.031-0.033-0.063-0.053-0.1c-0.021-0.037-0.038-0.064-0.06-0.1
									c-0.008-0.01-0.014-0.02-0.021-0.031c-0.006-0.006-0.01-0.012-0.014-0.02c-0.013-0.018-0.024-0.035-0.035-0.051
									c-0.027-0.037-0.054-0.076-0.081-0.111l-0.039-0.047c-0.009-0.012-0.018-0.021-0.027-0.033
									c-0.012-0.014-0.023-0.027-0.035-0.041c-0.045-0.053-0.1-0.1-0.143-0.154l0,0c-0.047-0.045-0.101-0.086-0.146-0.129
									c-0.025-0.021-0.048-0.045-0.074-0.064c-0.075-0.059-0.154-0.111-0.235-0.158l-3.891-2.246c-0.064-0.037-0.132-0.07-0.2-0.1
									c-0.016-0.008-0.032-0.014-0.048-0.018l-0.049-0.018c-0.021-0.006-0.042-0.016-0.063-0.021
									c-0.039-0.012-0.078-0.02-0.118-0.025c-0.011,0-0.021,0-0.032,0h-0.021c-0.016,0-0.03,0-0.044,0c-0.03,0-0.058,0-0.086,0
									l-0.077,0.008l0,0l0,0c-0.021,0-0.041,0.01-0.061,0.014c-0.019,0.006-0.042,0.016-0.063,0.023
									c-0.02,0.01-0.039,0.02-0.057,0.031h-0.007l-6.5,3.777c0.059-0.033,0.122-0.055,0.188-0.068l0,0
									c0.069-0.012,0.141-0.014,0.211-0.006c0.007,0,0.014,0,0.02,0c0.073,0.01,0.145,0.025,0.215,0.051
									c0.017,0,0.032,0.01,0.05,0.016c0.085,0.033,0.167,0.07,0.246,0.115l1.581,0.914c-0.024,0-0.048-0.006-0.071-0.008
									c-0.361-0.018-0.723-0.014-1.083,0.01c-0.276,0.018-0.545,0.045-0.81,0.086l-3.438-5.271
									c-0.017-0.023-0.032-0.047-0.047-0.07l-0.063-0.086c-0.025-0.031-0.05-0.063-0.077-0.094
									c-0.026-0.031-0.07-0.078-0.106-0.113c-0.105-0.105-0.224-0.199-0.354-0.275c-0.052-0.029-0.106-0.057-0.162-0.08
									c-0.048-0.02-0.096-0.035-0.146-0.049c-0.036-0.012-0.074-0.02-0.112-0.025l-0.1-0.012h-0.087
									c-0.028,0.002-0.056,0.006-0.083,0.012c-0.026,0.004-0.052,0.01-0.077,0.018c-0.024,0.008-0.049,0.016-0.072,0.025
									l-0.07,0.033c0,0,0,0-0.007,0l-2.759,1.572l-6.5,3.779l2.759-1.572h0.007c0.022-0.014,0.046-0.025,0.07-0.033
									c0.024-0.012,0.049-0.021,0.074-0.027c0.025-0.008,0.051-0.014,0.077-0.018c0.026-0.006,0.054-0.01,0.081-0.01
									c0.029-0.002,0.06-0.002,0.089,0c0.033,0.002,0.067,0.004,0.1,0.01c0.038,0.006,0.075,0.014,0.112,0.025
									c0.049,0.012,0.098,0.029,0.146,0.047c0.056,0.023,0.11,0.051,0.162,0.082c0.13,0.074,0.249,0.168,0.354,0.273
									c0.035,0.035,0.072,0.074,0.106,0.113c0.033,0.039,0.051,0.063,0.076,0.1c0.026,0.039,0.042,0.057,0.063,0.086
									c0.021,0.031,0.032,0.047,0.047,0.07l3.438,5.273c0.267-0.039,0.534-0.07,0.81-0.088c0.361-0.025,0.724-0.027,1.085-0.01
									c0.408,0.018,0.815,0.057,1.22,0.121c0.486,0.074,0.968,0.176,1.442,0.307c0.22,0.059,0.444,0.123,0.668,0.199l5.41-3.145
									l0.139,0.08c0.082,0.047,0.16,0.1,0.235,0.158c0.026,0.021,0.05,0.045,0.074,0.064c0.049,0.043,0.101,0.084,0.146,0.131
									c0.064,0.063,0.126,0.129,0.183,0.199l0.029,0.033c0.054,0.068,0.106,0.139,0.155,0.211l0.015,0.02
									c0.05,0.08,0.101,0.158,0.14,0.238c0.003,0.004,0.006,0.01,0.009,0.016c0.042,0.08,0.08,0.164,0.112,0.25
									c0,0.002,0,0.004,0,0.006c0.03,0.078,0.056,0.16,0.075,0.244c0.003,0.008,0.005,0.016,0.006,0.023
									c0.02,0.08,0.032,0.162,0.038,0.244l0.4,5.365l6.5-3.777L55.846,40.658z"/>
								
									<linearGradient id="Path_274_1_" gradientUnits="userSpaceOnUse" x1="-390.0996" y1="227.2297" x2="-392.7416" y2="229.3407" gradientTransform="matrix(21.119 0 0 -30.8276 8392.0566 7200.4585)">
									<stop  offset="0" style="stop-color:#0031BA"/>
									<stop  offset="1" style="stop-color:#0089F9"/>
								</linearGradient>
								<path id="Path_274" fill="url(#Path_274_1_)" d="M55.188,80.461c-2.379,0.352-4.804-0.184-6.813-1.508
									c-6.648-3.838-12.024-13.146-12-20.789c0.01-3.459,1.127-5.979,2.961-7.352c-3.168,0.668-5.253,3.654-5.268,8.389
									c-0.022,7.645,5.354,16.951,12,20.791C49.711,82.092,52.974,82.115,55.188,80.461z"/>
							</g>
							
								<linearGradient id="Path_275_1_" gradientUnits="userSpaceOnUse" x1="-396.7938" y1="232.508" x2="-397.4548" y2="233.484" gradientTransform="matrix(42.966 0 0 -54.1899 17113.3379 12699.7227)">
								<stop  offset="0" style="stop-color:#006EE6"/>
								<stop  offset="0.979" style="stop-color:#00BFF9"/>
							</linearGradient>
							<path id="Path_275" fill="url(#Path_275_1_)" d="M25.007,55.99c0.016,0.773,0.376,1.498,0.981,1.979l4.456,3.051
								c0.441,2.488,1.16,4.918,2.145,7.244l-2.869,2.307c-0.358,0.291-0.285,1.115,0.164,1.895l2.741,4.75
								c0.216,0.398,0.529,0.734,0.911,0.98c0.188,0.133,0.427,0.174,0.649,0.111l3.458-1.289c1.527,2.021,3.275,3.865,5.211,5.5
								l0.4,5.363c0.114,0.764,0.563,1.439,1.223,1.842l3.89,2.244c0.64,0.369,1.172,0.184,1.226-0.426l0.431-4.883
								c1.678,0.578,3.467,0.76,5.227,0.531l3.435,5.268c0.162,0.262,0.385,0.48,0.649,0.637c0.269,0.188,0.618,0.217,0.914,0.074
								l2.759-1.57c0.453-0.26,0.528-1,0.174-1.699l-2.845-5.607c1.087-1.393,1.832-3.02,2.177-4.75l4.456,2.1
								c0.56,0.264,0.988-0.1,0.99-0.836l0.014-4.471c-0.016-0.773-0.376-1.498-0.981-1.979l-4.453-3.049
								c-0.443-2.486-1.162-4.916-2.145-7.242l2.866-2.311c0.358-0.291,0.285-1.115-0.163-1.895l-2.74-4.746
								c-0.217-0.398-0.53-0.736-0.913-0.98c-0.188-0.135-0.427-0.178-0.649-0.115l-3.455,1.293c-1.527-2.021-3.275-3.865-5.211-5.5
								l-0.4-5.367c-0.111-0.764-0.559-1.438-1.219-1.838L44.62,40.36c-0.641-0.367-1.175-0.182-1.229,0.428l-0.43,4.883
								c-1.677-0.58-3.465-0.762-5.225-0.531L34.3,39.865c-0.163-0.26-0.386-0.479-0.649-0.637c-0.27-0.186-0.617-0.213-0.912-0.072
								l-2.76,1.572c-0.454,0.258-0.53,1-0.175,1.701l2.848,5.609c-1.088,1.391-1.834,3.018-2.177,4.75l-4.459-2.1
								c-0.557-0.26-0.988,0.1-0.991,0.836L25.007,55.99z M34.451,59.201c0.021-7.637,5.431-10.721,12.078-6.883
								c6.648,3.838,12.023,13.146,12,20.787c-0.022,7.639-5.428,10.729-12.078,6.885C39.8,76.147,34.428,66.846,34.451,59.201z"/>
						</g>
					</g>
					<g id="Group_85" transform="translate(73.483 137.455)">
						<g id="Group_82" transform="translate(30.175)">
							<path id="Path_280" fill="#8DFFF9" d="M25.11,35.278l-0.101,35.85L36.05,77.5l0.101-35.852L25.11,35.278z"/>
						</g>
						<g id="Group_83" transform="translate(15.029 8.441)">
							<path id="Path_281" fill="#8DFFF9" d="M25.057,35.278l-0.054,18.699l11.04,6.375l0.053-18.701L25.057,35.278z"/>
						</g>
						<g id="Group_84" transform="translate(0 6.063)">
							<path id="Path_282" fill="#8DFFF9" d="M25.042,35.279l-0.035,12.248L36.045,53.9l0.035-12.248L25.042,35.279z"/>
						</g>
					</g>
				</g>
			</g>
			<g id="Group_151" transform="translate(373.293 1903.504)">
				<circle id="Ellipse_20" fill="#FFFFFF" cx="68.538" cy="78.808" r="43.531"/>
				
					<path id="Icon_feather-play" opacity="0.91" fill="#FFFFFF" stroke="#7B7B7B" stroke-width="2" stroke-linecap="round" stroke-linejoin="round" enable-background="new    " d="
					M61.956,65.142l21.259,13.666L61.956,92.474V65.142z"/>
			</g>
		</g>
		<path id="Rectangle_50" fill="#E8E8E8" d="M363.507,1655.277h101c3.59,0,6.5,2.91,6.5,6.5l0,0c0,3.59-2.91,6.5-6.5,6.5h-101
			c-3.59,0-6.5-2.91-6.5-6.5l0,0C357.007,1658.188,359.917,1655.277,363.507,1655.277z"/>
	</g>
</g>
</svg>
